<svg width="64" height="60" viewBox="0 0 64 60" fill="none" xmlns="http://www.w3.org/2000/svg">
<path d="M64 51.4601C64 49.9401 62.77 45.8801 61.25 45.8801C59.73 45.8801 58.5 49.9401 58.5 51.4601C58.5 52.7301 59.37 53.7801 60.53 54.1001V57.7601H55.87V1.53006C55.87 1.13006 55.55 0.810059 55.15 0.810059H26C25.6 0.810059 25.28 1.13006 25.28 1.53006V14.8801L7.97 19.0501C7.65 19.1301 7.42 19.4201 7.42 19.7501V57.7601H3.47V54.1001C4.64 53.7801 5.5 52.7301 5.5 51.4601C5.5 49.9401 4.27 45.8801 2.75 45.8801C1.23 45.8801 0 49.9401 0 51.4601C0 52.7301 0.87 53.7801 2.03 54.1001V57.7601H1.13C0.73 57.7601 0.41 58.0801 0.41 58.4801C0.41 58.8801 0.73 59.2001 1.13 59.2001H62.26C62.66 59.2001 62.98 58.8801 62.98 58.4801C62.98 58.0801 62.66 57.7601 62.26 57.7601H61.96V54.1001C63.14 53.7901 64 52.7301 64 51.4601ZM14.78 57.7601V48.5001C14.78 45.9701 16.84 43.9101 19.37 43.9101C21.9 43.9101 23.96 45.9701 23.96 48.5001V57.7601H14.78ZM25.39 57.7601V48.5001C25.39 45.1801 22.69 42.4801 19.37 42.4801C16.05 42.4801 13.35 45.1801 13.35 48.5001V57.7601H8.86V20.3101L29.88 15.2401V57.7601H25.39ZM53.35 57.7601H49.01V44.8701H41.96V57.7601H37.65V44.8701H34.42V57.7601H31.32V14.3301C31.32 14.1101 31.22 13.9001 31.05 13.7701C30.88 13.6301 30.65 13.5801 30.44 13.6401L26.73 14.5401V2.24006H54.45V57.7601H53.35Z" fill="black"/>
<path d="M28.76 4.54004H52.39V9.29004H28.76V4.54004Z" fill="black"/>
<path d="M33.54 12.48H52.4V17.23H33.54V12.48Z" fill="black"/>
<path d="M33.54 20.4199H52.4V25.1699H33.54V20.4199Z" fill="black"/>
<path d="M33.54 28.3501H52.4V33.1001H33.54V28.3501Z" fill="black"/>
<path d="M33.54 36.29H52.4V41.04H33.54V36.29Z" fill="black"/>
<path d="M11.03 21.5801H15.15V25.3001H11.03V21.5801Z" fill="black"/>
<path d="M17.3101 21.5801H21.4301V25.3001H17.3101V21.5801Z" fill="black"/>
<path d="M23.59 21.5801H27.71V25.3001H23.59V21.5801Z" fill="black"/>
<path d="M11.03 26.9102H15.15V30.6302H11.03V26.9102Z" fill="black"/>
<path d="M17.3101 26.9102H21.4301V30.6302H17.3101V26.9102Z" fill="black"/>
<path d="M23.59 26.9102H27.71V30.6302H23.59V26.9102Z" fill="black"/>
<path d="M11.03 32.2402H15.15V35.9602H11.03V32.2402Z" fill="black"/>
<path d="M17.3101 32.2402H21.4301V35.9602H17.3101V32.2402Z" fill="black"/>
<path d="M23.59 32.2402H27.71V35.9602H23.59V32.2402Z" fill="black"/>
<path d="M11.03 37.5601H15.15V41.2801H11.03V37.5601Z" fill="black"/>
<path d="M17.3101 37.5601H21.4301V41.2801H17.3101V37.5601Z" fill="black"/>
<path d="M23.59 37.5601H27.71V41.2801H23.59V37.5601Z" fill="black"/>
<path d="M22.1501 50.71C21.6201 50.71 21.1801 51.15 21.1801 51.68C21.1801 52.21 21.6201 52.64 22.1501 52.64C22.6801 52.64 23.1101 52.21 23.1101 51.68C23.1101 51.15 22.6801 50.71 22.1501 50.71Z" fill="black"/>
</svg>
