<svg width="66" height="92" viewBox="0 0 66 92" fill="none" xmlns="http://www.w3.org/2000/svg">
<path d="M64.7895 0.672373C59.561 0.822142 54.3717 2.2075 49.4386 3.23339C41.9474 4.6189 34.7195 6.87259 27.8694 9.95878C27.6169 10.0999 27.2643 10.716 27.7619 10.8706C28.8182 11.1549 29.8859 11.1987 30.8954 10.9992C32.1956 11.0568 46.0762 9.87176 52.464 9.46623L49.5998 11.0667C45.8794 13.3258 42.4733 16.0865 39.4486 19.2947C33.0579 25.7595 27.3257 32.9552 22.3265 40.7882C17.5992 48.2468 13.3702 56.1066 9.66634 64.3179C7.74943 68.3567 6.06205 72.5454 4.61233 76.8638C3.10019 81.1297 1.71246 85.4342 0.625356 89.9087C0.494911 90.7794 1.9721 90.7652 2.27217 90.2595C4.37674 86.3792 6.07733 82.0621 7.91875 78.0585C9.76017 74.0549 11.7396 70.3391 13.8578 66.7082C18.3623 58.6882 23.3125 51.0153 28.6854 43.725C33.961 36.626 39.3647 29.3473 45.1889 22.7395C47.8262 19.7514 50.4499 16.514 53.3151 13.7907C53.8762 13.1797 54.3963 12.6997 54.9575 12.0887C51.7916 20.5102 46.8397 32.8504 48.4264 34.668C49.0297 35.2774 49.9907 34.6051 50.3806 34.0763C55.1996 26.6916 66.1689 0.442385 64.7895 0.672373Z" fill="#3D7C98" stroke="#3D7C98" stroke-opacity="0.2"/>
</svg>
