<!-- Generated by IcoMoon.io -->
<svg version="1.1" xmlns="http://www.w3.org/2000/svg" width="910" height="1024" viewBox="0 0 910 1024">
<title></title>
<g id="icomoon-ignore">
</g>
<path fill="#000" d="M261.564 90.169c-62.805 69.416-66.56 79.804-105.688 169.483-12.925-12.527-25.884-29.377-36.352-51.94 0 0 6.44 36.011 32.028 61.554-68.779 146.341-175.491 51.61-91.512 150.665-8.772 48.253-54.295 55.012-9.99 74.945-64.432 22.744-10.479 39.299-13.323 54.966-3.334 18.318-32.279 26.055-36.636 66.617-4.358 40.55 149.254 59.369 198.19 84.935 93.241 48.708 115.962 152.633 78.279 249.822-18.432 47.525 290.065-106.587 11.651-491.315-108.669-143.565-25.498-370.381-26.647-369.732zM766.236 724.275c-75.537-154.817 213.845-641.786-90.601-702.077l-109.056-21.447c67.8-3.311 147.843 4.767 179.575 15.622 331.412 113.266-17.237 513.809 20.082 707.903zM445.963 88.906c-107.702 357.149 394.775 527.736 64.046 770.708 201.193-178.369-241.084-444.871-187.051-721.454-113.493 376.331 450.662 545.508 3.436 810.519 52.122-15.667 93.98-32.552 127.181-50.563 556.988-169.961-71.43-482.543-7.612-809.21z"></path>
</svg>
