<!-- Generated by IcoMoon.io -->
<svg version="1.1" xmlns="http://www.w3.org/2000/svg" width="333" height="448" viewBox="0 0 333 448">
<title></title>
<g id="icomoon-ignore">
</g>
<path fill="#000" d="M291.75 160c3.25 33.25-10.75 53.25-32.75 64.5 36.5 8.75 59.5 30.5 55 79.25-5.75 60.75-50.75 77-115.25 80.5v63.75h-38.5v-62.75c-9.75 0-20 0-30.5-0.25v63h-38.5v-63.75c-9 0-18-0.25-27.25-0.25h-50l7.75-45.75c28.25 0.5 27.75 0 27.75 0 10.75 0 13.75-7.75 14.5-12.75v-100.5h4c-1.5-0.25-3-0.25-4-0.25v-71.75c-1.5-8-6.5-17-22.25-17 0 0 0.5-0.5-27.75 0v-41l53 0.25c7.75 0 16 0 24.25-0.25v-63h38.5v61.75c10.25-0.25 20.5-0.5 30.5-0.5v-61.25h38.5v63c49.5 4.25 88.75 19.5 93 65zM238 296.25c0-49.5-81.5-42.25-107.5-42.25v84.5c26 0 107.5 5.5 107.5-42.25zM220.25 177.25c0-45.25-68-38.5-89.75-38.5v76.75c21.75 0 89.75 5 89.75-38.25z"></path>
</svg>
