<!-- Generated by IcoMoon.io -->
<svg version="1.1" xmlns="http://www.w3.org/2000/svg" width="1024" height="1024" viewBox="0 0 1024 1024">
<title></title>
<g id="icomoon-ignore">
</g>
<path fill="#000" d="M704 960c141.385 0 256-114.615 256-256s-114.615-256-256-256v0c-141.385 0-256 114.615-256 256s114.615 256 256 256v0zM1024 704c0 176.731-143.269 320-320 320s-320-143.269-320-320v0c0-176.731 143.269-320 320-320s320 143.269 320 320v0z"></path>
<path fill="#000" d="M604.032 764.416c3.008 38.144 33.152 67.84 87.232 71.424v28.16h24v-28.352c56-3.904 88.704-33.856 88.704-77.248 0-39.552-24.96-59.904-69.76-70.4l-18.944-4.48v-76.8c24.064 2.752 39.296 15.872 42.944 34.048h42.112c-3.008-36.8-34.56-65.536-85.056-68.672v-28.096h-24v28.8c-47.808 4.672-80.32 33.408-80.32 74.112 0 35.968 24.192 58.88 64.448 68.224l15.872 3.904v81.408c-24.576-3.712-40.896-17.28-44.544-36.032h-42.752zM691.072 677.76c-23.616-5.44-36.416-16.64-36.416-33.408 0-18.816 13.824-32.896 36.608-36.992v70.4h-0.192zM718.72 725.504c28.736 6.656 41.92 17.408 41.92 36.416 0 21.696-16.448 36.544-45.376 39.296v-76.48l3.456 0.768z"></path>
<path fill="#000" d="M64 0c-35.346 0-64 28.654-64 64v0 512c0 35.346 28.654 64 64 64v0h261.312c3.712-22.016 9.28-43.392 16.512-64h-149.824c0-70.692-57.308-128-128-128v0-256c70.692 0 128-57.308 128-128v0h640c0 70.692 57.308 128 128 128v0 225.792c24.32 21.76 45.888 46.592 64 73.856v-427.648c0-35.346-28.654-64-64-64v0h-896z"></path>
<path fill="#000" d="M639.872 325.312l0.128-5.312c-0.043-70.66-57.334-127.924-128-127.924-70.692 0-128 57.308-128 128 0 43.616 21.815 82.137 55.129 105.246l0.423 0.278c53.457-50.99 121.885-86.724 198.034-99.959l2.286-0.329z"></path>
</svg>
