<svg width="74" height="68" viewBox="0 0 74 68" fill="none" xmlns="http://www.w3.org/2000/svg">
<path d="M6.28499 19.85C-1.49001 27.636 -1.49001 40.288 6.28499 48.074C14.056 55.855 26.701 55.855 34.477 48.074L32.868 46.47C25.956 53.387 14.8 53.387 7.89399 46.47C0.987986 39.554 0.987986 28.377 7.89399 21.46C14.799 14.544 25.956 14.544 32.868 21.46L34.477 19.851C30.587 15.96 25.478 14.022 20.379 14.022C15.275 14.022 10.17 15.96 6.28499 19.85Z" fill="black"/>
<path d="M19.248 24.7048C16.676 25.1688 14.357 27.5118 14.551 30.2318C14.603 32.1788 16.025 33.9078 17.858 34.4968C19.624 35.1218 21.661 35.1528 23.197 36.3348C23.983 37.0538 24.067 38.2928 23.817 39.2618C23.161 40.7248 21.369 41.1528 19.905 41.1108C18.608 41.0688 17.347 40.6688 16.208 40.0688L15.161 42.0788C16.427 42.7408 17.817 43.1998 19.249 43.3348V46.5898H21.515V43.2568C23.79 42.9558 26.093 41.2148 26.203 38.7778C26.34 36.6888 25.203 34.5068 23.219 33.6938C21.678 32.9288 19.906 32.8718 18.323 32.2318C17.334 31.8298 16.662 30.7928 16.828 29.7158C17.016 27.8508 19.016 26.7578 20.744 26.7988C22.094 26.7938 23.386 27.4078 24.37 28.3098L25.891 26.6268C24.681 25.5338 23.146 24.7628 21.515 24.6068V21.3418L19.248 21.3413V24.7048Z" fill="black"/>
<path d="M53.758 23.8041C51.442 24.2111 49.264 25.4131 47.66 27.3301C46.91 28.2261 46.342 29.2261 45.941 30.2681H42.16V32.5441H45.363C45.232 33.4861 45.232 34.4451 45.363 35.3931H42.16V37.6641H45.945C46.341 38.7111 46.91 39.7061 47.66 40.6021C50.863 44.4351 56.367 45.4091 60.685 42.9031L59.55 40.9401C56.175 42.8991 51.904 42.1481 49.394 39.1481C49.003 38.6841 48.685 38.1841 48.414 37.6641H56.039V35.3931H47.644C47.472 34.4511 47.472 33.4821 47.638 32.5441H56.038V30.2681H48.413C48.684 29.7471 49.003 29.2471 49.393 28.7851C51.903 25.7851 56.174 25.0341 59.549 26.9931L60.684 25.0291C59.07 24.0851 57.285 23.6371 55.514 23.6431C54.926 23.6431 54.336 23.7011 53.758 23.8041Z" fill="black"/>
<path d="M33.6851 33.9652C33.6851 44.9762 42.6231 53.9182 53.6171 53.9182C64.6131 53.9182 73.5391 44.9762 73.5391 33.9652C73.5391 22.9602 64.6131 14.0122 53.6171 14.0122C42.6231 14.0122 33.6851 22.9602 33.6851 33.9652ZM71.2731 33.9652C71.2731 43.7522 63.3821 51.6532 53.6171 51.6532C43.8471 51.6532 35.9511 43.7512 35.9511 33.9652C35.9521 24.1842 43.8481 16.2782 53.6171 16.2782C63.3831 16.2782 71.2731 24.1832 71.2731 33.9652Z" fill="black"/>
<path d="M19.551 7.23581L21.15 8.84081C29.317 0.662811 42.171 0.110812 50.973 7.16281H45.577V9.42881H54.786V0.220812H52.515V5.49681C48.008 1.83481 42.504 0.0078125 36.999 0.0078125C30.68 0.0078125 24.364 2.41881 19.551 7.23581Z" fill="black"/>
<path d="M19.551 67.9238H21.817V62.3918C26.327 66.0538 31.827 67.8868 37.331 67.8868C43.649 67.8868 49.967 65.4698 54.786 60.6528L53.181 59.0488C45.118 67.1228 32.484 67.7618 23.693 60.9818H28.756V58.7158H19.551V67.9238Z" fill="black"/>
</svg>
