<svg width="138" height="96" viewBox="0 0 138 96" fill="none" xmlns="http://www.w3.org/2000/svg">
<path d="M119.666 80.4231C120.698 61.7247 116.768 42.9604 102.376 29.0651C89.3859 16.5232 71.762 14.1598 63.3776 32.659C59.4085 41.4161 60.8412 54.2718 69.7115 59.8409C79.5937 66.0454 87.3225 56.489 87 49.0001C86.2469 31.5089 56.6781 33.2537 36.5 32.6591C12.6044 31.9549 0.852925 10.6981 0.999961 10.629" stroke="white" stroke-miterlimit="1.5" stroke-linecap="round" stroke-linejoin="round"/>
<path d="M136.351 66.7486C134.253 67.3212 132.627 68.6528 130.933 69.9031C125.372 74.0078 120.748 80.1072 119.633 86.8447C118.38 79.5723 114.171 70.5521 106.601 67.7141" stroke="white" stroke-miterlimit="1.5" stroke-linecap="round" stroke-linejoin="round"/>
</svg>
