<!-- Generated by IcoMoon.io -->
<svg version="1.1" xmlns="http://www.w3.org/2000/svg" width="1024" height="1024" viewBox="0 0 1024 1024">
<title></title>
<g id="icomoon-ignore">
</g>
<path fill="#000" d="M384 272v411.442c-131.677 21.93-224 73.025-224 132.558 0 79.529 164.759 144 368 144s368-64.471 368-144c0-79.529-164.759-144-368-144-39.053 0-76.685 2.38-112 6.791v0-244.505l416-178.286-448-192v208zM416 710.373c35.031-4.127 72.729-6.373 112-6.373 185.568 0 336 50.144 336 112s-150.432 112-336 112c-185.568 0-336-50.144-336-112 0-44.678 78.483-83.246 192-101.222v54.182c-36.516 4.447-64 23.818-64 47.040 0 26.51 35.817 48 80 48s80-21.49 80-48c0-23.222-27.484-42.592-64-47.040v-58.587zM416 112l336 144-336 144v-288zM656 832c26.51 0 48-14.327 48-32s-21.49-32-48-32c-26.51 0-48 14.327-48 32s21.49 32 48 32v0z"></path>
</svg>
