<!-- Generated by IcoMoon.io -->
<svg version="1.1" xmlns="http://www.w3.org/2000/svg" width="1024" height="1024" viewBox="0 0 1024 1024">
<title></title>
<g id="icomoon-ignore">
</g>
<path fill="#000" d="M512-1.088c-282.912 0-513.12 230.144-513.12 513.088s230.208 513.088 513.12 513.088 513.12-230.144 513.12-513.088-230.208-513.088-513.12-513.088zM512 990.912c-264.064 0-478.88-214.848-478.88-478.912s214.816-478.912 478.88-478.912 478.88 214.848 478.88 478.912-214.816 478.912-478.88 478.912zM336 528c35.296 0 64-28.704 64-64s-28.704-64-64-64-64 28.704-64 64 28.704 64 64 64zM336 432c17.632 0 32 14.336 32 32s-14.368 32-32 32-32-14.336-32-32 14.368-32 32-32zM688 528c35.296 0 64-28.704 64-64s-28.704-64-64-64-64 28.704-64 64 28.704 64 64 64zM688 432c17.632 0 32 14.336 32 32s-14.368 32-32 32-32-14.336-32-32 14.368-32 32-32zM730.336 706.4c-54.272 58.784-131.104 92.512-210.816 92.512-80.96 0-158.592-34.592-212.992-94.944-6.336-6.976-17.184-7.584-24.16-1.216-7.008 6.304-7.584 17.12-1.248 24.16 60.896 67.488 147.776 106.176 238.4 106.176 89.216 0 175.232-37.728 235.936-103.488 6.4-6.944 5.984-17.76-0.96-24.16s-17.76-6.016-24.16 0.96z"></path>
</svg>
