<!-- Generated by IcoMoon.io -->
<svg version="1.1" xmlns="http://www.w3.org/2000/svg" width="384" height="448" viewBox="0 0 384 448">
<title></title>
<g id="icomoon-ignore">
</g>
<path fill="#000" d="M320 320c0-17.5-14.5-32-32-32s-32 14.5-32 32 14.5 32 32 32 32-14.5 32-32zM128 128c0-17.5-14.5-32-32-32s-32 14.5-32 32 14.5 32 32 32 32-14.5 32-32zM384 320c0 53-43 96-96 96s-96-43-96-96 43-96 96-96 96 43 96 96zM360 48c0 3.5-1.25 6.75-3.25 9.5l-264 352c-3 4-7.75 6.5-12.75 6.5h-40c-8.75 0-16-7.25-16-16 0-3.5 1.25-6.75 3.25-9.5l264-352c3-4 7.75-6.5 12.75-6.5h40c8.75 0 16 7.25 16 16zM192 128c0 53-43 96-96 96s-96-43-96-96 43-96 96-96 96 43 96 96z"></path>
</svg>
