<svg width="30" height="28" viewBox="0 0 30 28" fill="none" xmlns="http://www.w3.org/2000/svg">
<path d="M28.5954 14.997H27.4644C27.4894 14.665 27.5274 14.335 27.5274 14.001C27.5274 6.49802 21.4234 0.39502 13.9224 0.39502C6.42143 0.39502 0.31543 6.49802 0.31543 14C0.31543 21.501 6.41943 27.605 13.9204 27.605C17.0624 27.605 20.1274 26.509 22.5494 24.519L20.4594 21.974C18.6234 23.482 16.3014 24.312 13.9204 24.312C8.23543 24.313 3.60843 19.688 3.60843 14C3.60843 8.31202 8.23543 3.68602 13.9214 3.68602C19.6094 3.68602 24.2344 8.31302 24.2344 13.999C24.2344 14.334 24.2044 14.666 24.1714 14.997H23.1654C22.1954 14.997 21.7984 15.686 22.2834 16.526L22.7584 17.348C23.2434 18.188 24.0384 19.565 24.5244 20.405L24.9994 21.227C25.4834 22.067 26.2784 22.067 26.7634 21.227L27.2384 20.405C27.7244 19.565 28.5174 18.188 29.0044 17.348L29.4794 16.526C29.9634 15.686 29.5654 14.997 28.5954 14.997Z" fill="white"/>
</svg>
