<!-- Generated by IcoMoon.io -->
<svg version="1.1" xmlns="http://www.w3.org/2000/svg" width="1020" height="1024" viewBox="0 0 1020 1024">
<path fill="#000" d="M498.219 351.722c-152.434 170.879-251.23 382.675-284.091 609.312l-8.268 56.394 33.497 4.876 8.268-56.394c32.013-220.065 128.053-425.713 276.035-591.503l-25.441-22.685z"></path>
<path fill="#000" d="M765.35 985.839h-50.882v33.921h50.882v-33.921z"></path>
<path fill="#000" d="M968.878 443.097h-67.843v-186.567c0-37.525-30.317-67.843-67.843-67.843-25.865 0-49.61 14.841-61.058 38.161-13.145-12.296-27.137-23.957-41.766-34.557 49.61-33.921 101.552-63.814 155.826-89.467l-26.289 52.578 30.317 15.265 57.030-113.848-113.848-56.818-15.265 30.317 69.327 34.769c-65.511 29.893-128.265 65.723-187.203 107.064-20.777-12.72-42.402-23.957-64.875-33.285 29.257-33.073 45.37-75.687 45.158-119.785v-16.961h-16.961c-47.914-0.212-93.92 18.869-127.841 53.002l-28.833 28.833-138.441-55.334c-18.869-7.632-40.494-3.18-54.91 11.236l-50.882 50.882 60.846 33.709c-241.477 75.687-376.103 332.641-300.416 574.118 26.289 84.167 76.535 159.006 144.378 215.4l21.625-26.077c-25.441-21.201-48.338-45.37-68.267-71.659h2.968c35.829 0 64.875-29.045 64.875-64.875 0-8.268 3.18-16.113 9.116-21.837l39.646-39.646c12.296-12.084 19.081-28.621 19.081-46.006v-11.236c0-17.173-6.784-33.709-19.081-46.006l-19.929-19.929c-25.441-25.229-66.359-25.229-91.8 0l-2.968 2.968c-5.724 5.936-13.781 9.116-21.837 9.116h-64.451c-0.212-5.724-0.424-11.236-0.424-16.961 0-16.961 1.060-33.921 3.18-50.882h62.542c29.257 0 53.002-23.745 53.002-53.002 0-13.993-5.512-27.561-15.477-37.525l-54.91-54.91c57.454-110.244 160.49-189.747 281.759-217.308l49.186 27.349-107.912 107.912v49.822l-71.871-28.833-76.959 76.959 101.976 40.706 40.706 101.976 76.959-76.959-28.833-71.871h49.822l107.7-107.7 84.803 152.646 50.882-50.882c14.417-14.417 18.869-36.041 11.236-54.91l-55.334-138.441 10.812-10.812c20.989 7.844 41.342 17.597 60.846 28.621-6.784 5.088-13.569 10.388-20.353 15.689l20.989 26.713c9.964-7.844 19.929-15.477 30.317-22.897 23.109 16.113 44.734 34.345 64.239 54.486v175.331h-67.843c-27.985 0-50.882 22.897-50.882 50.882v407.056c0 12.933 4.876 25.229 13.569 34.557-20.777 11.024-42.19 20.353-64.451 27.985v-14.629c0-13.569-5.3-26.501-14.841-36.041l-31.165-30.953c-3.18-3.18-4.876-7.42-4.876-12.084v-19.717c0-9.328 7.632-16.961 16.961-16.961 27.985 0 50.882-22.897 50.882-50.882v-50.882c0-27.985-22.897-50.882-50.882-50.882h-36.889c-13.569 0-26.501 5.3-36.041 14.841l-81.835 82.047c-3.18 3.18-7.42 4.876-12.084 4.876h-19.717c-27.985 0-50.882 22.897-50.882 50.882v36.889c0 13.569 5.3 26.501 14.841 36.041l13.993 13.993c3.18 3.18 4.876 7.42 4.876 12.084v41.554c-20.989-5.088-41.342-11.872-61.27-20.141l-13.145 31.377c136.109 56.182 290.875 43.886 416.384-33.073h268.827c27.985 0 50.882-22.897 50.882-50.882v-407.056c0-27.985-22.897-50.882-50.882-50.882zM100.916 612.704c17.173 0 33.709-6.784 46.006-19.081l2.968-2.968c12.084-12.084 31.801-12.084 43.886 0l19.929 19.929c5.936 5.724 9.116 13.781 9.116 21.837v11.236c0 8.268-3.18 16.113-9.116 21.837l-39.858 39.858c-12.296 12.084-19.081 28.621-19.081 46.006 0 17.173-13.993 30.953-30.953 30.953h-26.077c-31.377-51.73-51.518-109.608-58.726-169.607h61.906zM115.333 444.581c7.42 7.42 7.42 19.505 0 26.925-3.604 3.604-8.48 5.512-13.357 5.512h-57.454c5.512-26.925 13.569-53.426 24.381-78.867l46.43 46.43zM313.56 463.874l-27.137-67.631-67.631-27.137 24.805-24.805 67.631 27.137 27.137 67.631-24.805 24.805zM603.588 122.965l-44.734 44.734 63.602 159.218c2.544 6.36 1.060 13.569-3.816 18.233l-19.081 19.081-84.803-152.646-129.537 129.749h-43.886v-43.886l129.749-129.749-98.796-54.91-0.212-0.636c-0.212 0-0.424 0-0.636 0.212l-53.002-29.469 19.081-19.081c4.876-4.876 12.084-6.36 18.233-3.816l159.218 63.602 44.734-44.522c23.109-23.109 53.214-37.949 85.863-41.978-4.028 32.437-18.657 62.754-41.978 85.863zM561.822 973.542c-55.546 13.569-113.212 15.901-169.607 6.996v-48.338c0-13.569-5.3-26.501-14.841-36.041l-13.993-13.993c-3.18-3.18-4.876-7.42-4.876-12.084v-36.889c0-9.328 7.632-16.961 16.961-16.961h19.929c13.569 0 26.501-5.3 36.041-14.841l81.835-81.835c3.18-3.18 7.42-4.876 12.084-4.876h36.465c9.328 0 16.961 7.632 16.961 16.961v50.882c0 9.328-7.632 16.961-16.961 16.961-27.985 0-50.882 22.897-50.882 50.882v19.929c0 13.569 5.3 26.501 14.841 36.041l30.953 30.953c3.18 3.18 4.876 7.42 4.876 12.084v24.169h0.212zM799.271 256.53c0-18.657 15.265-33.921 33.921-33.921s33.921 15.265 33.921 33.921v186.567h-67.843v-186.567zM985.839 901.035c0 9.328-7.632 16.961-16.961 16.961h-271.371c-9.328 0-16.961-7.632-16.961-16.961v-407.056c0-9.328 7.632-16.961 16.961-16.961h271.371c9.328 0 16.961 7.632 16.961 16.961v407.056z"></path>
<path fill="#000" d="M968.878 985.839h-50.882v33.921h50.882v-33.921z"></path>
<path fill="#000" d="M765.35 510.94h-33.921v373.135h33.921v-373.135z"></path>
<path fill="#000" d="M850.153 510.94h-33.921v373.135h33.921v-373.135z"></path>
<path fill="#000" d="M934.957 510.94h-33.921v373.135h33.921v-373.135z"></path>
<path fill="#000" d="M477.019 527.901v9.964l-40.918 40.918c-6.36 6.36-9.964 15.053-9.964 23.957v9.964c0 18.657 15.265 33.921 33.921 33.921h43.886c8.904 0 17.597-3.604 23.957-9.964l23.957-23.957h26.925c18.657 0 33.921-15.265 33.921-33.921v-50.882c0-18.657-15.265-33.921-33.921-33.921h-67.843c-18.657 0-33.921 15.265-33.921 33.921zM510.94 537.865v-9.964h67.843v50.882h-26.925c-8.904 0-17.597 3.604-23.957 9.964l-23.957 23.957h-43.886v-9.964l40.918-40.918c6.36-6.36 9.964-15.053 9.964-23.957z"></path>
</svg>
