<svg width="16" height="20" viewBox="0 0 16 20" fill="none" xmlns="http://www.w3.org/2000/svg">
<path d="M15 8.00013H4V6.20013C4 4.10013 5.5 2.20013 7.6 2.00013C9.7 1.80013 11.5 3.20013 11.9 5.20013C12 5.70013 12.4 6.00013 12.9 6.00013C13.5 6.00013 14 5.40013 13.9 4.80013C13.3 1.80013 10.5 -0.399867 7.2 0.000132725C4.2 0.400133 2 3.20013 2 6.20013V8.00013H1C0.4 8.00013 0 8.40013 0 9.00013V19.0001C0 19.5001 0.4 20.0001 1 20.0001H15C15.5 20.0001 16 19.5001 16 19.0001V9.00013C16 8.40013 15.5 8.00013 15 8.00013ZM9 14.7001V16.0001C9 16.5001 8.5 17.0001 8 17.0001C7.4 17.0001 7 16.5001 7 16.0001V14.7001C6.4 14.4001 6 13.7001 6 13.0001C6 11.9001 6.9 11.0001 8 11.0001C9.1 11.0001 10 11.9001 10 13.0001C10 13.7001 9.6 14.4001 9 14.7001Z" fill="white"/>
</svg>
