<svg width="478" height="312" viewBox="0 0 478 312" fill="none" xmlns="http://www.w3.org/2000/svg">
<circle cx="327.151" cy="164" r="4" fill="#3B7B98"/>
<circle cx="327.151" cy="180" r="4" fill="#3B7B98"/>
<circle cx="327.151" cy="196" r="4" fill="#3B7B98"/>
<circle cx="327.151" cy="212" r="4" fill="#3B7B98"/>
<circle cx="327.151" cy="228" r="4" fill="#3B7B98"/>
<circle cx="327.151" cy="244" r="4" fill="#3B7B98"/>
<circle cx="327.151" cy="260" r="4" fill="#3B7B98"/>
<circle cx="327.151" cy="276" r="4" fill="#3B7B98"/>
<circle cx="327.151" cy="292" r="4" fill="#3B7B98"/>
<circle cx="327.151" cy="308" r="4" fill="#3B7B98"/>
<circle cx="424.151" cy="164" r="4" fill="#3B7B98"/>
<circle cx="424.151" cy="180" r="4" fill="#3B7B98"/>
<circle cx="424.151" cy="196" r="4" fill="#3B7B98"/>
<circle cx="424.151" cy="212" r="4" fill="#3B7B98"/>
<circle cx="424.151" cy="228" r="4" fill="#3B7B98"/>
<circle cx="424.151" cy="244" r="4" fill="#3B7B98"/>
<circle cx="424.151" cy="260" r="4" fill="#3B7B98"/>
<circle cx="424.151" cy="276" r="4" fill="#3B7B98"/>
<circle cx="424.151" cy="292" r="4" fill="#3B7B98"/>
<circle cx="424.151" cy="308" r="4" fill="#3B7B98"/>
<circle cx="376.151" cy="164" r="4" fill="#3B7B98"/>
<circle cx="376.151" cy="180" r="4" fill="#3B7B98"/>
<circle cx="376.151" cy="196" r="4" fill="#3B7B98"/>
<circle cx="376.151" cy="212" r="4" fill="#3B7B98"/>
<circle cx="376.151" cy="228" r="4" fill="#3B7B98"/>
<circle cx="376.151" cy="244" r="4" fill="#3B7B98"/>
<circle cx="376.151" cy="260" r="4" fill="#3B7B98"/>
<circle cx="376.151" cy="276" r="4" fill="#3B7B98"/>
<circle cx="376.151" cy="292" r="4" fill="#3B7B98"/>
<circle cx="376.151" cy="308" r="4" fill="#3B7B98"/>
<circle cx="473.151" cy="164" r="4" fill="#3B7B98"/>
<circle cx="473.151" cy="180" r="4" fill="#3B7B98"/>
<circle cx="473.151" cy="196" r="4" fill="#3B7B98"/>
<circle cx="473.151" cy="212" r="4" fill="#3B7B98"/>
<circle cx="473.151" cy="228" r="4" fill="#3B7B98"/>
<circle cx="473.151" cy="244" r="4" fill="#3B7B98"/>
<circle cx="473.151" cy="260" r="4" fill="#3B7B98"/>
<circle cx="473.151" cy="276" r="4" fill="#3B7B98"/>
<circle cx="473.151" cy="292" r="4" fill="#3B7B98"/>
<circle cx="473.151" cy="308" r="4" fill="#3B7B98"/>
<circle cx="343.151" cy="164" r="4" fill="#3B7B98"/>
<circle cx="343.151" cy="180" r="4" fill="#3B7B98"/>
<circle cx="343.151" cy="196" r="4" fill="#3B7B98"/>
<circle cx="343.151" cy="212" r="4" fill="#3B7B98"/>
<circle cx="343.151" cy="228" r="4" fill="#3B7B98"/>
<circle cx="343.151" cy="244" r="4" fill="#3B7B98"/>
<circle cx="343.151" cy="260" r="4" fill="#3B7B98"/>
<circle cx="343.151" cy="276" r="4" fill="#3B7B98"/>
<circle cx="343.151" cy="292" r="4" fill="#3B7B98"/>
<circle cx="343.151" cy="308" r="4" fill="#3B7B98"/>
<circle cx="440.151" cy="164" r="4" fill="#3B7B98"/>
<circle cx="440.151" cy="180" r="4" fill="#3B7B98"/>
<circle cx="440.151" cy="196" r="4" fill="#3B7B98"/>
<circle cx="440.151" cy="212" r="4" fill="#3B7B98"/>
<circle cx="440.151" cy="228" r="4" fill="#3B7B98"/>
<circle cx="440.151" cy="244" r="4" fill="#3B7B98"/>
<circle cx="440.151" cy="260" r="4" fill="#3B7B98"/>
<circle cx="440.151" cy="276" r="4" fill="#3B7B98"/>
<circle cx="440.151" cy="292" r="4" fill="#3B7B98"/>
<circle cx="440.151" cy="308" r="4" fill="#3B7B98"/>
<circle cx="392.151" cy="164" r="4" fill="#3B7B98"/>
<circle cx="392.151" cy="180" r="4" fill="#3B7B98"/>
<circle cx="392.151" cy="196" r="4" fill="#3B7B98"/>
<circle cx="392.151" cy="212" r="4" fill="#3B7B98"/>
<circle cx="392.151" cy="228" r="4" fill="#3B7B98"/>
<circle cx="392.151" cy="244" r="4" fill="#3B7B98"/>
<circle cx="392.151" cy="260" r="4" fill="#3B7B98"/>
<circle cx="392.151" cy="276" r="4" fill="#3B7B98"/>
<circle cx="392.151" cy="292" r="4" fill="#3B7B98"/>
<circle cx="392.151" cy="308" r="4" fill="#3B7B98"/>
<circle cx="359.151" cy="164" r="4" fill="#3B7B98"/>
<circle cx="359.151" cy="180" r="4" fill="#3B7B98"/>
<circle cx="359.151" cy="196" r="4" fill="#3B7B98"/>
<circle cx="359.151" cy="212" r="4" fill="#3B7B98"/>
<circle cx="359.151" cy="228" r="4" fill="#3B7B98"/>
<circle cx="359.151" cy="244" r="4" fill="#3B7B98"/>
<circle cx="359.151" cy="260" r="4" fill="#3B7B98"/>
<circle cx="359.151" cy="276" r="4" fill="#3B7B98"/>
<circle cx="359.151" cy="292" r="4" fill="#3B7B98"/>
<circle cx="359.151" cy="308" r="4" fill="#3B7B98"/>
<circle cx="456.151" cy="164" r="4" fill="#3B7B98"/>
<circle cx="456.151" cy="180" r="4" fill="#3B7B98"/>
<circle cx="456.151" cy="196" r="4" fill="#3B7B98"/>
<circle cx="456.151" cy="212" r="4" fill="#3B7B98"/>
<circle cx="456.151" cy="228" r="4" fill="#3B7B98"/>
<circle cx="456.151" cy="244" r="4" fill="#3B7B98"/>
<circle cx="456.151" cy="260" r="4" fill="#3B7B98"/>
<circle cx="456.151" cy="276" r="4" fill="#3B7B98"/>
<circle cx="456.151" cy="292" r="4" fill="#3B7B98"/>
<circle cx="456.151" cy="308" r="4" fill="#3B7B98"/>
<circle cx="408.151" cy="164" r="4" fill="#3B7B98"/>
<circle cx="408.151" cy="180" r="4" fill="#3B7B98"/>
<circle cx="408.151" cy="196" r="4" fill="#3B7B98"/>
<circle cx="408.151" cy="212" r="4" fill="#3B7B98"/>
<circle cx="408.151" cy="228" r="4" fill="#3B7B98"/>
<circle cx="408.151" cy="244" r="4" fill="#3B7B98"/>
<circle cx="408.151" cy="260" r="4" fill="#3B7B98"/>
<circle cx="408.151" cy="276" r="4" fill="#3B7B98"/>
<circle cx="408.151" cy="292" r="4" fill="#3B7B98"/>
<circle cx="408.151" cy="308" r="4" fill="#3B7B98"/>
<circle cx="165.151" cy="132" r="4" fill="#3B7B98"/>
<circle cx="165.151" cy="148" r="4" fill="#3B7B98"/>
<circle cx="165.151" cy="164" r="4" fill="#3B7B98"/>
<circle cx="165.151" cy="180" r="4" fill="#3B7B98"/>
<circle cx="165.151" cy="196" r="4" fill="#3B7B98"/>
<circle cx="165.151" cy="212" r="4" fill="#3B7B98"/>
<circle cx="165.151" cy="228" r="4" fill="#3B7B98"/>
<circle cx="165.151" cy="244" r="4" fill="#3B7B98"/>
<circle cx="165.151" cy="260" r="4" fill="#3B7B98"/>
<circle cx="165.151" cy="276" r="4" fill="#3B7B98"/>
<circle cx="262.151" cy="132" r="4" fill="#3B7B98"/>
<circle cx="262.151" cy="148" r="4" fill="#3B7B98"/>
<circle cx="262.151" cy="164" r="4" fill="#3B7B98"/>
<circle cx="262.151" cy="180" r="4" fill="#3B7B98"/>
<circle cx="262.151" cy="196" r="4" fill="#3B7B98"/>
<circle cx="262.151" cy="212" r="4" fill="#3B7B98"/>
<circle cx="262.151" cy="228" r="4" fill="#3B7B98"/>
<circle cx="262.151" cy="244" r="4" fill="#3B7B98"/>
<circle cx="262.151" cy="260" r="4" fill="#3B7B98"/>
<circle cx="262.151" cy="276" r="4" fill="#3B7B98"/>
<circle cx="214.151" cy="132" r="4" fill="#3B7B98"/>
<circle cx="214.151" cy="148" r="4" fill="#3B7B98"/>
<circle cx="214.151" cy="164" r="4" fill="#3B7B98"/>
<circle cx="214.151" cy="180" r="4" fill="#3B7B98"/>
<circle cx="214.151" cy="196" r="4" fill="#3B7B98"/>
<circle cx="214.151" cy="212" r="4" fill="#3B7B98"/>
<circle cx="214.151" cy="228" r="4" fill="#3B7B98"/>
<circle cx="214.151" cy="244" r="4" fill="#3B7B98"/>
<circle cx="214.151" cy="260" r="4" fill="#3B7B98"/>
<circle cx="214.151" cy="276" r="4" fill="#3B7B98"/>
<circle cx="311.151" cy="132" r="4" fill="#3B7B98"/>
<circle cx="311.151" cy="148" r="4" fill="#3B7B98"/>
<circle cx="311.151" cy="164" r="4" fill="#3B7B98"/>
<circle cx="311.151" cy="180" r="4" fill="#3B7B98"/>
<circle cx="311.151" cy="196" r="4" fill="#3B7B98"/>
<circle cx="311.151" cy="212" r="4" fill="#3B7B98"/>
<circle cx="311.151" cy="228" r="4" fill="#3B7B98"/>
<circle cx="311.151" cy="244" r="4" fill="#3B7B98"/>
<circle cx="311.151" cy="260" r="4" fill="#3B7B98"/>
<circle cx="311.151" cy="276" r="4" fill="#3B7B98"/>
<circle cx="181.151" cy="132" r="4" fill="#3B7B98"/>
<circle cx="181.151" cy="148" r="4" fill="#3B7B98"/>
<circle cx="181.151" cy="164" r="4" fill="#3B7B98"/>
<circle cx="181.151" cy="180" r="4" fill="#3B7B98"/>
<circle cx="181.151" cy="196" r="4" fill="#3B7B98"/>
<circle cx="181.151" cy="212" r="4" fill="#3B7B98"/>
<circle cx="181.151" cy="228" r="4" fill="#3B7B98"/>
<circle cx="181.151" cy="244" r="4" fill="#3B7B98"/>
<circle cx="181.151" cy="260" r="4" fill="#3B7B98"/>
<circle cx="181.151" cy="276" r="4" fill="#3B7B98"/>
<circle cx="278.151" cy="132" r="4" fill="#3B7B98"/>
<circle cx="278.151" cy="148" r="4" fill="#3B7B98"/>
<circle cx="278.151" cy="164" r="4" fill="#3B7B98"/>
<circle cx="278.151" cy="180" r="4" fill="#3B7B98"/>
<circle cx="278.151" cy="196" r="4" fill="#3B7B98"/>
<circle cx="278.151" cy="212" r="4" fill="#3B7B98"/>
<circle cx="278.151" cy="228" r="4" fill="#3B7B98"/>
<circle cx="278.151" cy="244" r="4" fill="#3B7B98"/>
<circle cx="278.151" cy="260" r="4" fill="#3B7B98"/>
<circle cx="278.151" cy="276" r="4" fill="#3B7B98"/>
<circle cx="230.151" cy="132" r="4" fill="#3B7B98"/>
<circle cx="230.151" cy="148" r="4" fill="#3B7B98"/>
<circle cx="230.151" cy="164" r="4" fill="#3B7B98"/>
<circle cx="230.151" cy="180" r="4" fill="#3B7B98"/>
<circle cx="230.151" cy="196" r="4" fill="#3B7B98"/>
<circle cx="230.151" cy="212" r="4" fill="#3B7B98"/>
<circle cx="230.151" cy="228" r="4" fill="#3B7B98"/>
<circle cx="230.151" cy="244" r="4" fill="#3B7B98"/>
<circle cx="230.151" cy="260" r="4" fill="#3B7B98"/>
<circle cx="230.151" cy="276" r="4" fill="#3B7B98"/>
<circle cx="197.151" cy="132" r="4" fill="#3B7B98"/>
<circle cx="197.151" cy="148" r="4" fill="#3B7B98"/>
<circle cx="197.151" cy="164" r="4" fill="#3B7B98"/>
<circle cx="197.151" cy="180" r="4" fill="#3B7B98"/>
<circle cx="197.151" cy="196" r="4" fill="#3B7B98"/>
<circle cx="197.151" cy="212" r="4" fill="#3B7B98"/>
<circle cx="197.151" cy="228" r="4" fill="#3B7B98"/>
<circle cx="197.151" cy="244" r="4" fill="#3B7B98"/>
<circle cx="197.151" cy="260" r="4" fill="#3B7B98"/>
<circle cx="197.151" cy="276" r="4" fill="#3B7B98"/>
<circle cx="294.151" cy="132" r="4" fill="#3B7B98"/>
<circle cx="294.151" cy="148" r="4" fill="#3B7B98"/>
<circle cx="294.151" cy="164" r="4" fill="#3B7B98"/>
<circle cx="294.151" cy="180" r="4" fill="#3B7B98"/>
<circle cx="294.151" cy="196" r="4" fill="#3B7B98"/>
<circle cx="294.151" cy="212" r="4" fill="#3B7B98"/>
<circle cx="294.151" cy="228" r="4" fill="#3B7B98"/>
<circle cx="294.151" cy="244" r="4" fill="#3B7B98"/>
<circle cx="294.151" cy="260" r="4" fill="#3B7B98"/>
<circle cx="294.151" cy="276" r="4" fill="#3B7B98"/>
<circle cx="246.151" cy="132" r="4" fill="#3B7B98"/>
<circle cx="246.151" cy="148" r="4" fill="#3B7B98"/>
<circle cx="246.151" cy="164" r="4" fill="#3B7B98"/>
<circle cx="246.151" cy="180" r="4" fill="#3B7B98"/>
<circle cx="246.151" cy="196" r="4" fill="#3B7B98"/>
<circle cx="246.151" cy="212" r="4" fill="#3B7B98"/>
<circle cx="246.151" cy="228" r="4" fill="#3B7B98"/>
<circle cx="246.151" cy="244" r="4" fill="#3B7B98"/>
<circle cx="246.151" cy="260" r="4" fill="#3B7B98"/>
<circle cx="246.151" cy="276" r="4" fill="#3B7B98"/>
<circle cx="20.1514" cy="148" r="4" fill="#3B7B98"/>
<circle cx="20.1514" cy="164" r="4" fill="#3B7B98"/>
<circle cx="20.1514" cy="180" r="4" fill="#3B7B98"/>
<circle cx="20.1514" cy="196" r="4" fill="#3B7B98"/>
<circle cx="20.1514" cy="212" r="4" fill="#3B7B98"/>
<circle cx="20.1514" cy="228" r="4" fill="#3B7B98"/>
<circle cx="20.1514" cy="244" r="4" fill="#3B7B98"/>
<circle cx="20.1514" cy="260" r="4" fill="#3B7B98"/>
<circle cx="20.1514" cy="276" r="4" fill="#3B7B98"/>
<circle cx="20.1514" cy="292" r="4" fill="#3B7B98"/>
<circle cx="117.151" cy="148" r="4" fill="#3B7B98"/>
<circle cx="117.151" cy="164" r="4" fill="#3B7B98"/>
<circle cx="117.151" cy="180" r="4" fill="#3B7B98"/>
<circle cx="117.151" cy="196" r="4" fill="#3B7B98"/>
<circle cx="117.151" cy="212" r="4" fill="#3B7B98"/>
<circle cx="117.151" cy="228" r="4" fill="#3B7B98"/>
<circle cx="117.151" cy="244" r="4" fill="#3B7B98"/>
<circle cx="117.151" cy="260" r="4" fill="#3B7B98"/>
<circle cx="117.151" cy="276" r="4" fill="#3B7B98"/>
<circle cx="117.151" cy="292" r="4" fill="#3B7B98"/>
<circle cx="69.1514" cy="148" r="4" fill="#3B7B98"/>
<circle cx="69.1514" cy="164" r="4" fill="#3B7B98"/>
<circle cx="69.1514" cy="180" r="4" fill="#3B7B98"/>
<circle cx="69.1514" cy="196" r="4" fill="#3B7B98"/>
<circle cx="69.1514" cy="212" r="4" fill="#3B7B98"/>
<circle cx="69.1514" cy="228" r="4" fill="#3B7B98"/>
<circle cx="69.1514" cy="244" r="4" fill="#3B7B98"/>
<circle cx="69.1514" cy="260" r="4" fill="#3B7B98"/>
<circle cx="69.1514" cy="276" r="4" fill="#3B7B98"/>
<circle cx="69.1514" cy="292" r="4" fill="#3B7B98"/>
<circle cx="166.151" cy="148" r="4" fill="#3B7B98"/>
<circle cx="166.151" cy="164" r="4" fill="#3B7B98"/>
<circle cx="166.151" cy="180" r="4" fill="#3B7B98"/>
<circle cx="166.151" cy="196" r="4" fill="#3B7B98"/>
<circle cx="166.151" cy="212" r="4" fill="#3B7B98"/>
<circle cx="166.151" cy="228" r="4" fill="#3B7B98"/>
<circle cx="166.151" cy="244" r="4" fill="#3B7B98"/>
<circle cx="166.151" cy="260" r="4" fill="#3B7B98"/>
<circle cx="166.151" cy="276" r="4" fill="#3B7B98"/>
<circle cx="166.151" cy="292" r="4" fill="#3B7B98"/>
<circle cx="36.1514" cy="148" r="4" fill="#3B7B98"/>
<circle cx="36.1514" cy="164" r="4" fill="#3B7B98"/>
<circle cx="36.1514" cy="180" r="4" fill="#3B7B98"/>
<circle cx="36.1514" cy="196" r="4" fill="#3B7B98"/>
<circle cx="36.1514" cy="212" r="4" fill="#3B7B98"/>
<circle cx="36.1514" cy="228" r="4" fill="#3B7B98"/>
<circle cx="36.1514" cy="244" r="4" fill="#3B7B98"/>
<circle cx="36.1514" cy="260" r="4" fill="#3B7B98"/>
<circle cx="36.1514" cy="276" r="4" fill="#3B7B98"/>
<circle cx="36.1514" cy="292" r="4" fill="#3B7B98"/>
<circle cx="133.151" cy="148" r="4" fill="#3B7B98"/>
<circle cx="133.151" cy="164" r="4" fill="#3B7B98"/>
<circle cx="133.151" cy="180" r="4" fill="#3B7B98"/>
<circle cx="133.151" cy="196" r="4" fill="#3B7B98"/>
<circle cx="133.151" cy="212" r="4" fill="#3B7B98"/>
<circle cx="133.151" cy="228" r="4" fill="#3B7B98"/>
<circle cx="133.151" cy="244" r="4" fill="#3B7B98"/>
<circle cx="133.151" cy="260" r="4" fill="#3B7B98"/>
<circle cx="133.151" cy="276" r="4" fill="#3B7B98"/>
<circle cx="133.151" cy="292" r="4" fill="#3B7B98"/>
<circle cx="85.1514" cy="148" r="4" fill="#3B7B98"/>
<circle cx="85.1514" cy="164" r="4" fill="#3B7B98"/>
<circle cx="85.1514" cy="180" r="4" fill="#3B7B98"/>
<circle cx="85.1514" cy="196" r="4" fill="#3B7B98"/>
<circle cx="85.1514" cy="212" r="4" fill="#3B7B98"/>
<circle cx="85.1514" cy="228" r="4" fill="#3B7B98"/>
<circle cx="85.1514" cy="244" r="4" fill="#3B7B98"/>
<circle cx="85.1514" cy="260" r="4" fill="#3B7B98"/>
<circle cx="85.1514" cy="276" r="4" fill="#3B7B98"/>
<circle cx="85.1514" cy="292" r="4" fill="#3B7B98"/>
<circle cx="52.1514" cy="148" r="4" fill="#3B7B98"/>
<circle cx="52.1514" cy="164" r="4" fill="#3B7B98"/>
<circle cx="52.1514" cy="180" r="4" fill="#3B7B98"/>
<circle cx="52.1514" cy="196" r="4" fill="#3B7B98"/>
<circle cx="52.1514" cy="212" r="4" fill="#3B7B98"/>
<circle cx="52.1514" cy="228" r="4" fill="#3B7B98"/>
<circle cx="52.1514" cy="244" r="4" fill="#3B7B98"/>
<circle cx="52.1514" cy="260" r="4" fill="#3B7B98"/>
<circle cx="52.1514" cy="276" r="4" fill="#3B7B98"/>
<circle cx="52.1514" cy="292" r="4" fill="#3B7B98"/>
<circle cx="149.151" cy="148" r="4" fill="#3B7B98"/>
<circle cx="149.151" cy="164" r="4" fill="#3B7B98"/>
<circle cx="149.151" cy="180" r="4" fill="#3B7B98"/>
<circle cx="149.151" cy="196" r="4" fill="#3B7B98"/>
<circle cx="149.151" cy="212" r="4" fill="#3B7B98"/>
<circle cx="149.151" cy="228" r="4" fill="#3B7B98"/>
<circle cx="149.151" cy="244" r="4" fill="#3B7B98"/>
<circle cx="149.151" cy="260" r="4" fill="#3B7B98"/>
<circle cx="149.151" cy="276" r="4" fill="#3B7B98"/>
<circle cx="149.151" cy="292" r="4" fill="#3B7B98"/>
<circle cx="101.151" cy="148" r="4" fill="#3B7B98"/>
<circle cx="101.151" cy="164" r="4" fill="#3B7B98"/>
<circle cx="101.151" cy="180" r="4" fill="#3B7B98"/>
<circle cx="101.151" cy="196" r="4" fill="#3B7B98"/>
<circle cx="101.151" cy="212" r="4" fill="#3B7B98"/>
<circle cx="101.151" cy="228" r="4" fill="#3B7B98"/>
<circle cx="101.151" cy="244" r="4" fill="#3B7B98"/>
<circle cx="101.151" cy="260" r="4" fill="#3B7B98"/>
<circle cx="101.151" cy="276" r="4" fill="#3B7B98"/>
<circle cx="101.151" cy="292" r="4" fill="#3B7B98"/>
<circle cx="4.15137" cy="148" r="4" fill="#3B7B98"/>
<circle cx="4.15137" cy="164" r="4" fill="#3B7B98"/>
<circle cx="4.15137" cy="180" r="4" fill="#3B7B98"/>
<circle cx="4.15137" cy="196" r="4" fill="#3B7B98"/>
<circle cx="4.15137" cy="212" r="4" fill="#3B7B98"/>
<circle cx="4.15137" cy="228" r="4" fill="#3B7B98"/>
<circle cx="4.15137" cy="244" r="4" fill="#3B7B98"/>
<circle cx="4.15137" cy="260" r="4" fill="#3B7B98"/>
<circle cx="4.15137" cy="276" r="4" fill="#3B7B98"/>
<circle cx="4.15137" cy="292" r="4" fill="#3B7B98"/>
<circle cx="101.151" cy="148" r="4" fill="#3B7B98"/>
<circle cx="101.151" cy="164" r="4" fill="#3B7B98"/>
<circle cx="101.151" cy="180" r="4" fill="#3B7B98"/>
<circle cx="101.151" cy="196" r="4" fill="#3B7B98"/>
<circle cx="101.151" cy="212" r="4" fill="#3B7B98"/>
<circle cx="101.151" cy="228" r="4" fill="#3B7B98"/>
<circle cx="101.151" cy="244" r="4" fill="#3B7B98"/>
<circle cx="101.151" cy="260" r="4" fill="#3B7B98"/>
<circle cx="101.151" cy="276" r="4" fill="#3B7B98"/>
<circle cx="101.151" cy="292" r="4" fill="#3B7B98"/>
<circle cx="53.1514" cy="148" r="4" fill="#3B7B98"/>
<circle cx="53.1514" cy="164" r="4" fill="#3B7B98"/>
<circle cx="53.1514" cy="180" r="4" fill="#3B7B98"/>
<circle cx="53.1514" cy="196" r="4" fill="#3B7B98"/>
<circle cx="53.1514" cy="212" r="4" fill="#3B7B98"/>
<circle cx="53.1514" cy="228" r="4" fill="#3B7B98"/>
<circle cx="53.1514" cy="244" r="4" fill="#3B7B98"/>
<circle cx="53.1514" cy="260" r="4" fill="#3B7B98"/>
<circle cx="53.1514" cy="276" r="4" fill="#3B7B98"/>
<circle cx="53.1514" cy="292" r="4" fill="#3B7B98"/>
<circle cx="150.151" cy="148" r="4" fill="#3B7B98"/>
<circle cx="150.151" cy="164" r="4" fill="#3B7B98"/>
<circle cx="150.151" cy="180" r="4" fill="#3B7B98"/>
<circle cx="150.151" cy="196" r="4" fill="#3B7B98"/>
<circle cx="150.151" cy="212" r="4" fill="#3B7B98"/>
<circle cx="150.151" cy="228" r="4" fill="#3B7B98"/>
<circle cx="150.151" cy="244" r="4" fill="#3B7B98"/>
<circle cx="150.151" cy="260" r="4" fill="#3B7B98"/>
<circle cx="150.151" cy="276" r="4" fill="#3B7B98"/>
<circle cx="150.151" cy="292" r="4" fill="#3B7B98"/>
<circle cx="20.1514" cy="148" r="4" fill="#3B7B98"/>
<circle cx="20.1514" cy="164" r="4" fill="#3B7B98"/>
<circle cx="20.1514" cy="180" r="4" fill="#3B7B98"/>
<circle cx="20.1514" cy="196" r="4" fill="#3B7B98"/>
<circle cx="20.1514" cy="212" r="4" fill="#3B7B98"/>
<circle cx="20.1514" cy="228" r="4" fill="#3B7B98"/>
<circle cx="20.1514" cy="244" r="4" fill="#3B7B98"/>
<circle cx="20.1514" cy="260" r="4" fill="#3B7B98"/>
<circle cx="20.1514" cy="276" r="4" fill="#3B7B98"/>
<circle cx="20.1514" cy="292" r="4" fill="#3B7B98"/>
<circle cx="117.151" cy="148" r="4" fill="#3B7B98"/>
<circle cx="117.151" cy="164" r="4" fill="#3B7B98"/>
<circle cx="117.151" cy="180" r="4" fill="#3B7B98"/>
<circle cx="117.151" cy="196" r="4" fill="#3B7B98"/>
<circle cx="117.151" cy="212" r="4" fill="#3B7B98"/>
<circle cx="117.151" cy="228" r="4" fill="#3B7B98"/>
<circle cx="117.151" cy="244" r="4" fill="#3B7B98"/>
<circle cx="117.151" cy="260" r="4" fill="#3B7B98"/>
<circle cx="117.151" cy="276" r="4" fill="#3B7B98"/>
<circle cx="117.151" cy="292" r="4" fill="#3B7B98"/>
<circle cx="69.1514" cy="148" r="4" fill="#3B7B98"/>
<circle cx="69.1514" cy="164" r="4" fill="#3B7B98"/>
<circle cx="69.1514" cy="180" r="4" fill="#3B7B98"/>
<circle cx="69.1514" cy="196" r="4" fill="#3B7B98"/>
<circle cx="69.1514" cy="212" r="4" fill="#3B7B98"/>
<circle cx="69.1514" cy="228" r="4" fill="#3B7B98"/>
<circle cx="69.1514" cy="244" r="4" fill="#3B7B98"/>
<circle cx="69.1514" cy="260" r="4" fill="#3B7B98"/>
<circle cx="69.1514" cy="276" r="4" fill="#3B7B98"/>
<circle cx="69.1514" cy="292" r="4" fill="#3B7B98"/>
<circle cx="36.1514" cy="148" r="4" fill="#3B7B98"/>
<circle cx="36.1514" cy="164" r="4" fill="#3B7B98"/>
<circle cx="36.1514" cy="180" r="4" fill="#3B7B98"/>
<circle cx="36.1514" cy="196" r="4" fill="#3B7B98"/>
<circle cx="36.1514" cy="212" r="4" fill="#3B7B98"/>
<circle cx="36.1514" cy="228" r="4" fill="#3B7B98"/>
<circle cx="36.1514" cy="244" r="4" fill="#3B7B98"/>
<circle cx="36.1514" cy="260" r="4" fill="#3B7B98"/>
<circle cx="36.1514" cy="276" r="4" fill="#3B7B98"/>
<circle cx="36.1514" cy="292" r="4" fill="#3B7B98"/>
<circle cx="133.151" cy="148" r="4" fill="#3B7B98"/>
<circle cx="133.151" cy="164" r="4" fill="#3B7B98"/>
<circle cx="133.151" cy="180" r="4" fill="#3B7B98"/>
<circle cx="133.151" cy="196" r="4" fill="#3B7B98"/>
<circle cx="133.151" cy="212" r="4" fill="#3B7B98"/>
<circle cx="133.151" cy="228" r="4" fill="#3B7B98"/>
<circle cx="133.151" cy="244" r="4" fill="#3B7B98"/>
<circle cx="133.151" cy="260" r="4" fill="#3B7B98"/>
<circle cx="133.151" cy="276" r="4" fill="#3B7B98"/>
<circle cx="133.151" cy="292" r="4" fill="#3B7B98"/>
<circle cx="85.1514" cy="148" r="4" fill="#3B7B98"/>
<circle cx="85.1514" cy="164" r="4" fill="#3B7B98"/>
<circle cx="85.1514" cy="180" r="4" fill="#3B7B98"/>
<circle cx="85.1514" cy="196" r="4" fill="#3B7B98"/>
<circle cx="85.1514" cy="212" r="4" fill="#3B7B98"/>
<circle cx="85.1514" cy="228" r="4" fill="#3B7B98"/>
<circle cx="85.1514" cy="244" r="4" fill="#3B7B98"/>
<circle cx="85.1514" cy="260" r="4" fill="#3B7B98"/>
<circle cx="85.1514" cy="276" r="4" fill="#3B7B98"/>
<circle cx="85.1514" cy="292" r="4" fill="#3B7B98"/>
<circle cx="4.15137" cy="4" r="4" fill="#3B7B98"/>
<circle cx="4.15137" cy="20" r="4" fill="#3B7B98"/>
<circle cx="4.15137" cy="36" r="4" fill="#3B7B98"/>
<circle cx="4.15137" cy="52" r="4" fill="#3B7B98"/>
<circle cx="4.15137" cy="68" r="4" fill="#3B7B98"/>
<circle cx="4.15137" cy="84" r="4" fill="#3B7B98"/>
<circle cx="4.15137" cy="100" r="4" fill="#3B7B98"/>
<circle cx="4.15137" cy="116" r="4" fill="#3B7B98"/>
<circle cx="4.15137" cy="132" r="4" fill="#3B7B98"/>
<circle cx="4.15137" cy="148" r="4" fill="#3B7B98"/>
<circle cx="101.151" cy="4" r="4" fill="#3B7B98"/>
<circle cx="101.151" cy="20" r="4" fill="#3B7B98"/>
<circle cx="101.151" cy="36" r="4" fill="#3B7B98"/>
<circle cx="101.151" cy="52" r="4" fill="#3B7B98"/>
<circle cx="101.151" cy="68" r="4" fill="#3B7B98"/>
<circle cx="101.151" cy="84" r="4" fill="#3B7B98"/>
<circle cx="101.151" cy="100" r="4" fill="#3B7B98"/>
<circle cx="101.151" cy="116" r="4" fill="#3B7B98"/>
<circle cx="101.151" cy="132" r="4" fill="#3B7B98"/>
<circle cx="101.151" cy="148" r="4" fill="#3B7B98"/>
<circle cx="53.1514" cy="4" r="4" fill="#3B7B98"/>
<circle cx="53.1514" cy="20" r="4" fill="#3B7B98"/>
<circle cx="53.1514" cy="36" r="4" fill="#3B7B98"/>
<circle cx="53.1514" cy="52" r="4" fill="#3B7B98"/>
<circle cx="53.1514" cy="68" r="4" fill="#3B7B98"/>
<circle cx="53.1514" cy="84" r="4" fill="#3B7B98"/>
<circle cx="53.1514" cy="100" r="4" fill="#3B7B98"/>
<circle cx="53.1514" cy="116" r="4" fill="#3B7B98"/>
<circle cx="53.1514" cy="132" r="4" fill="#3B7B98"/>
<circle cx="53.1514" cy="148" r="4" fill="#3B7B98"/>
<circle cx="150.151" cy="4" r="4" fill="#3B7B98"/>
<circle cx="150.151" cy="20" r="4" fill="#3B7B98"/>
<circle cx="150.151" cy="36" r="4" fill="#3B7B98"/>
<circle cx="150.151" cy="52" r="4" fill="#3B7B98"/>
<circle cx="150.151" cy="68" r="4" fill="#3B7B98"/>
<circle cx="150.151" cy="84" r="4" fill="#3B7B98"/>
<circle cx="150.151" cy="100" r="4" fill="#3B7B98"/>
<circle cx="150.151" cy="116" r="4" fill="#3B7B98"/>
<circle cx="150.151" cy="132" r="4" fill="#3B7B98"/>
<circle cx="150.151" cy="148" r="4" fill="#3B7B98"/>
<circle cx="20.1514" cy="4" r="4" fill="#3B7B98"/>
<circle cx="20.1514" cy="20" r="4" fill="#3B7B98"/>
<circle cx="20.1514" cy="36" r="4" fill="#3B7B98"/>
<circle cx="20.1514" cy="52" r="4" fill="#3B7B98"/>
<circle cx="20.1514" cy="68" r="4" fill="#3B7B98"/>
<circle cx="20.1514" cy="84" r="4" fill="#3B7B98"/>
<circle cx="20.1514" cy="100" r="4" fill="#3B7B98"/>
<circle cx="20.1514" cy="116" r="4" fill="#3B7B98"/>
<circle cx="20.1514" cy="132" r="4" fill="#3B7B98"/>
<circle cx="20.1514" cy="148" r="4" fill="#3B7B98"/>
<circle cx="117.151" cy="4" r="4" fill="#3B7B98"/>
<circle cx="117.151" cy="20" r="4" fill="#3B7B98"/>
<circle cx="117.151" cy="36" r="4" fill="#3B7B98"/>
<circle cx="117.151" cy="52" r="4" fill="#3B7B98"/>
<circle cx="117.151" cy="68" r="4" fill="#3B7B98"/>
<circle cx="117.151" cy="84" r="4" fill="#3B7B98"/>
<circle cx="117.151" cy="100" r="4" fill="#3B7B98"/>
<circle cx="117.151" cy="116" r="4" fill="#3B7B98"/>
<circle cx="117.151" cy="132" r="4" fill="#3B7B98"/>
<circle cx="117.151" cy="148" r="4" fill="#3B7B98"/>
<circle cx="69.1514" cy="4" r="4" fill="#3B7B98"/>
<circle cx="69.1514" cy="20" r="4" fill="#3B7B98"/>
<circle cx="69.1514" cy="36" r="4" fill="#3B7B98"/>
<circle cx="69.1514" cy="52" r="4" fill="#3B7B98"/>
<circle cx="69.1514" cy="68" r="4" fill="#3B7B98"/>
<circle cx="69.1514" cy="84" r="4" fill="#3B7B98"/>
<circle cx="69.1514" cy="100" r="4" fill="#3B7B98"/>
<circle cx="69.1514" cy="116" r="4" fill="#3B7B98"/>
<circle cx="69.1514" cy="132" r="4" fill="#3B7B98"/>
<circle cx="69.1514" cy="148" r="4" fill="#3B7B98"/>
<circle cx="36.1514" cy="4" r="4" fill="#3B7B98"/>
<circle cx="36.1514" cy="20" r="4" fill="#3B7B98"/>
<circle cx="36.1514" cy="36" r="4" fill="#3B7B98"/>
<circle cx="36.1514" cy="52" r="4" fill="#3B7B98"/>
<circle cx="36.1514" cy="68" r="4" fill="#3B7B98"/>
<circle cx="36.1514" cy="84" r="4" fill="#3B7B98"/>
<circle cx="36.1514" cy="100" r="4" fill="#3B7B98"/>
<circle cx="36.1514" cy="116" r="4" fill="#3B7B98"/>
<circle cx="36.1514" cy="132" r="4" fill="#3B7B98"/>
<circle cx="36.1514" cy="148" r="4" fill="#3B7B98"/>
<circle cx="133.151" cy="4" r="4" fill="#3B7B98"/>
<circle cx="133.151" cy="20" r="4" fill="#3B7B98"/>
<circle cx="133.151" cy="36" r="4" fill="#3B7B98"/>
<circle cx="133.151" cy="52" r="4" fill="#3B7B98"/>
<circle cx="133.151" cy="68" r="4" fill="#3B7B98"/>
<circle cx="133.151" cy="84" r="4" fill="#3B7B98"/>
<circle cx="133.151" cy="100" r="4" fill="#3B7B98"/>
<circle cx="133.151" cy="116" r="4" fill="#3B7B98"/>
<circle cx="133.151" cy="132" r="4" fill="#3B7B98"/>
<circle cx="133.151" cy="148" r="4" fill="#3B7B98"/>
<circle cx="85.1514" cy="4" r="4" fill="#3B7B98"/>
<circle cx="85.1514" cy="20" r="4" fill="#3B7B98"/>
<circle cx="85.1514" cy="36" r="4" fill="#3B7B98"/>
<circle cx="85.1514" cy="52" r="4" fill="#3B7B98"/>
<circle cx="85.1514" cy="68" r="4" fill="#3B7B98"/>
<circle cx="85.1514" cy="84" r="4" fill="#3B7B98"/>
<circle cx="85.1514" cy="100" r="4" fill="#3B7B98"/>
<circle cx="85.1514" cy="116" r="4" fill="#3B7B98"/>
<circle cx="85.1514" cy="132" r="4" fill="#3B7B98"/>
<circle cx="85.1514" cy="148" r="4" fill="#3B7B98"/>
<circle cx="327.151" cy="4" r="4" fill="#3B7B98"/>
<circle cx="327.151" cy="20" r="4" fill="#3B7B98"/>
<circle cx="327.151" cy="36" r="4" fill="#3B7B98"/>
<circle cx="327.151" cy="52" r="4" fill="#3B7B98"/>
<circle cx="327.151" cy="68" r="4" fill="#3B7B98"/>
<circle cx="327.151" cy="84" r="4" fill="#3B7B98"/>
<circle cx="327.151" cy="100" r="4" fill="#3B7B98"/>
<circle cx="327.151" cy="116" r="4" fill="#3B7B98"/>
<circle cx="327.151" cy="132" r="4" fill="#3B7B98"/>
<circle cx="327.151" cy="148" r="4" fill="#3B7B98"/>
<circle cx="424.151" cy="4" r="4" fill="#3B7B98"/>
<circle cx="424.151" cy="20" r="4" fill="#3B7B98"/>
<circle cx="424.151" cy="36" r="4" fill="#3B7B98"/>
<circle cx="424.151" cy="52" r="4" fill="#3B7B98"/>
<circle cx="424.151" cy="68" r="4" fill="#3B7B98"/>
<circle cx="424.151" cy="84" r="4" fill="#3B7B98"/>
<circle cx="424.151" cy="100" r="4" fill="#3B7B98"/>
<circle cx="424.151" cy="116" r="4" fill="#3B7B98"/>
<circle cx="424.151" cy="132" r="4" fill="#3B7B98"/>
<circle cx="424.151" cy="148" r="4" fill="#3B7B98"/>
<circle cx="376.151" cy="4" r="4" fill="#3B7B98"/>
<circle cx="376.151" cy="20" r="4" fill="#3B7B98"/>
<circle cx="376.151" cy="36" r="4" fill="#3B7B98"/>
<circle cx="376.151" cy="52" r="4" fill="#3B7B98"/>
<circle cx="376.151" cy="68" r="4" fill="#3B7B98"/>
<circle cx="376.151" cy="84" r="4" fill="#3B7B98"/>
<circle cx="376.151" cy="100" r="4" fill="#3B7B98"/>
<circle cx="376.151" cy="116" r="4" fill="#3B7B98"/>
<circle cx="376.151" cy="132" r="4" fill="#3B7B98"/>
<circle cx="376.151" cy="148" r="4" fill="#3B7B98"/>
<circle cx="473.151" cy="4" r="4" fill="#3B7B98"/>
<circle cx="473.151" cy="20" r="4" fill="#3B7B98"/>
<circle cx="473.151" cy="36" r="4" fill="#3B7B98"/>
<circle cx="473.151" cy="52" r="4" fill="#3B7B98"/>
<circle cx="473.151" cy="68" r="4" fill="#3B7B98"/>
<circle cx="473.151" cy="84" r="4" fill="#3B7B98"/>
<circle cx="473.151" cy="100" r="4" fill="#3B7B98"/>
<circle cx="473.151" cy="116" r="4" fill="#3B7B98"/>
<circle cx="473.151" cy="132" r="4" fill="#3B7B98"/>
<circle cx="473.151" cy="148" r="4" fill="#3B7B98"/>
<circle cx="343.151" cy="4" r="4" fill="#3B7B98"/>
<circle cx="343.151" cy="20" r="4" fill="#3B7B98"/>
<circle cx="343.151" cy="36" r="4" fill="#3B7B98"/>
<circle cx="343.151" cy="52" r="4" fill="#3B7B98"/>
<circle cx="343.151" cy="68" r="4" fill="#3B7B98"/>
<circle cx="343.151" cy="84" r="4" fill="#3B7B98"/>
<circle cx="343.151" cy="100" r="4" fill="#3B7B98"/>
<circle cx="343.151" cy="116" r="4" fill="#3B7B98"/>
<circle cx="343.151" cy="132" r="4" fill="#3B7B98"/>
<circle cx="343.151" cy="148" r="4" fill="#3B7B98"/>
<circle cx="440.151" cy="4" r="4" fill="#3B7B98"/>
<circle cx="440.151" cy="20" r="4" fill="#3B7B98"/>
<circle cx="440.151" cy="36" r="4" fill="#3B7B98"/>
<circle cx="440.151" cy="52" r="4" fill="#3B7B98"/>
<circle cx="440.151" cy="68" r="4" fill="#3B7B98"/>
<circle cx="440.151" cy="84" r="4" fill="#3B7B98"/>
<circle cx="440.151" cy="100" r="4" fill="#3B7B98"/>
<circle cx="440.151" cy="116" r="4" fill="#3B7B98"/>
<circle cx="440.151" cy="132" r="4" fill="#3B7B98"/>
<circle cx="440.151" cy="148" r="4" fill="#3B7B98"/>
<circle cx="392.151" cy="4" r="4" fill="#3B7B98"/>
<circle cx="392.151" cy="20" r="4" fill="#3B7B98"/>
<circle cx="392.151" cy="36" r="4" fill="#3B7B98"/>
<circle cx="392.151" cy="52" r="4" fill="#3B7B98"/>
<circle cx="392.151" cy="68" r="4" fill="#3B7B98"/>
<circle cx="392.151" cy="84" r="4" fill="#3B7B98"/>
<circle cx="392.151" cy="100" r="4" fill="#3B7B98"/>
<circle cx="392.151" cy="116" r="4" fill="#3B7B98"/>
<circle cx="392.151" cy="132" r="4" fill="#3B7B98"/>
<circle cx="392.151" cy="148" r="4" fill="#3B7B98"/>
<circle cx="359.151" cy="4" r="4" fill="#3B7B98"/>
<circle cx="359.151" cy="20" r="4" fill="#3B7B98"/>
<circle cx="359.151" cy="36" r="4" fill="#3B7B98"/>
<circle cx="359.151" cy="52" r="4" fill="#3B7B98"/>
<circle cx="359.151" cy="68" r="4" fill="#3B7B98"/>
<circle cx="359.151" cy="84" r="4" fill="#3B7B98"/>
<circle cx="359.151" cy="100" r="4" fill="#3B7B98"/>
<circle cx="359.151" cy="116" r="4" fill="#3B7B98"/>
<circle cx="359.151" cy="132" r="4" fill="#3B7B98"/>
<circle cx="359.151" cy="148" r="4" fill="#3B7B98"/>
<circle cx="456.151" cy="4" r="4" fill="#3B7B98"/>
<circle cx="456.151" cy="20" r="4" fill="#3B7B98"/>
<circle cx="456.151" cy="36" r="4" fill="#3B7B98"/>
<circle cx="456.151" cy="52" r="4" fill="#3B7B98"/>
<circle cx="456.151" cy="68" r="4" fill="#3B7B98"/>
<circle cx="456.151" cy="84" r="4" fill="#3B7B98"/>
<circle cx="456.151" cy="100" r="4" fill="#3B7B98"/>
<circle cx="456.151" cy="116" r="4" fill="#3B7B98"/>
<circle cx="456.151" cy="132" r="4" fill="#3B7B98"/>
<circle cx="456.151" cy="148" r="4" fill="#3B7B98"/>
<circle cx="408.151" cy="4" r="4" fill="#3B7B98"/>
<circle cx="408.151" cy="20" r="4" fill="#3B7B98"/>
<circle cx="408.151" cy="36" r="4" fill="#3B7B98"/>
<circle cx="408.151" cy="52" r="4" fill="#3B7B98"/>
<circle cx="408.151" cy="68" r="4" fill="#3B7B98"/>
<circle cx="408.151" cy="84" r="4" fill="#3B7B98"/>
<circle cx="408.151" cy="100" r="4" fill="#3B7B98"/>
<circle cx="408.151" cy="116" r="4" fill="#3B7B98"/>
<circle cx="408.151" cy="132" r="4" fill="#3B7B98"/>
<circle cx="408.151" cy="148" r="4" fill="#3B7B98"/>
<circle cx="165.151" cy="4" r="4" fill="#3B7B98"/>
<circle cx="165.151" cy="20" r="4" fill="#3B7B98"/>
<circle cx="165.151" cy="36" r="4" fill="#3B7B98"/>
<circle cx="165.151" cy="52" r="4" fill="#3B7B98"/>
<circle cx="165.151" cy="68" r="4" fill="#3B7B98"/>
<circle cx="165.151" cy="84" r="4" fill="#3B7B98"/>
<circle cx="165.151" cy="100" r="4" fill="#3B7B98"/>
<circle cx="165.151" cy="116" r="4" fill="#3B7B98"/>
<circle cx="165.151" cy="132" r="4" fill="#3B7B98"/>
<circle cx="165.151" cy="148" r="4" fill="#3B7B98"/>
<circle cx="262.151" cy="4" r="4" fill="#3B7B98"/>
<circle cx="262.151" cy="20" r="4" fill="#3B7B98"/>
<circle cx="262.151" cy="36" r="4" fill="#3B7B98"/>
<circle cx="262.151" cy="52" r="4" fill="#3B7B98"/>
<circle cx="262.151" cy="68" r="4" fill="#3B7B98"/>
<circle cx="262.151" cy="84" r="4" fill="#3B7B98"/>
<circle cx="262.151" cy="100" r="4" fill="#3B7B98"/>
<circle cx="262.151" cy="116" r="4" fill="#3B7B98"/>
<circle cx="262.151" cy="132" r="4" fill="#3B7B98"/>
<circle cx="262.151" cy="148" r="4" fill="#3B7B98"/>
<circle cx="214.151" cy="4" r="4" fill="#3B7B98"/>
<circle cx="214.151" cy="20" r="4" fill="#3B7B98"/>
<circle cx="214.151" cy="36" r="4" fill="#3B7B98"/>
<circle cx="214.151" cy="52" r="4" fill="#3B7B98"/>
<circle cx="214.151" cy="68" r="4" fill="#3B7B98"/>
<circle cx="214.151" cy="84" r="4" fill="#3B7B98"/>
<circle cx="214.151" cy="100" r="4" fill="#3B7B98"/>
<circle cx="214.151" cy="116" r="4" fill="#3B7B98"/>
<circle cx="214.151" cy="132" r="4" fill="#3B7B98"/>
<circle cx="214.151" cy="148" r="4" fill="#3B7B98"/>
<circle cx="311.151" cy="4" r="4" fill="#3B7B98"/>
<circle cx="311.151" cy="20" r="4" fill="#3B7B98"/>
<circle cx="311.151" cy="36" r="4" fill="#3B7B98"/>
<circle cx="311.151" cy="52" r="4" fill="#3B7B98"/>
<circle cx="311.151" cy="68" r="4" fill="#3B7B98"/>
<circle cx="311.151" cy="84" r="4" fill="#3B7B98"/>
<circle cx="311.151" cy="100" r="4" fill="#3B7B98"/>
<circle cx="311.151" cy="116" r="4" fill="#3B7B98"/>
<circle cx="311.151" cy="132" r="4" fill="#3B7B98"/>
<circle cx="311.151" cy="148" r="4" fill="#3B7B98"/>
<circle cx="181.151" cy="4" r="4" fill="#3B7B98"/>
<circle cx="181.151" cy="20" r="4" fill="#3B7B98"/>
<circle cx="181.151" cy="36" r="4" fill="#3B7B98"/>
<circle cx="181.151" cy="52" r="4" fill="#3B7B98"/>
<circle cx="181.151" cy="68" r="4" fill="#3B7B98"/>
<circle cx="181.151" cy="84" r="4" fill="#3B7B98"/>
<circle cx="181.151" cy="100" r="4" fill="#3B7B98"/>
<circle cx="181.151" cy="116" r="4" fill="#3B7B98"/>
<circle cx="181.151" cy="132" r="4" fill="#3B7B98"/>
<circle cx="181.151" cy="148" r="4" fill="#3B7B98"/>
<circle cx="278.151" cy="4" r="4" fill="#3B7B98"/>
<circle cx="278.151" cy="20" r="4" fill="#3B7B98"/>
<circle cx="278.151" cy="36" r="4" fill="#3B7B98"/>
<circle cx="278.151" cy="52" r="4" fill="#3B7B98"/>
<circle cx="278.151" cy="68" r="4" fill="#3B7B98"/>
<circle cx="278.151" cy="84" r="4" fill="#3B7B98"/>
<circle cx="278.151" cy="100" r="4" fill="#3B7B98"/>
<circle cx="278.151" cy="116" r="4" fill="#3B7B98"/>
<circle cx="278.151" cy="132" r="4" fill="#3B7B98"/>
<circle cx="278.151" cy="148" r="4" fill="#3B7B98"/>
<circle cx="230.151" cy="4" r="4" fill="#3B7B98"/>
<circle cx="230.151" cy="20" r="4" fill="#3B7B98"/>
<circle cx="230.151" cy="36" r="4" fill="#3B7B98"/>
<circle cx="230.151" cy="52" r="4" fill="#3B7B98"/>
<circle cx="230.151" cy="68" r="4" fill="#3B7B98"/>
<circle cx="230.151" cy="84" r="4" fill="#3B7B98"/>
<circle cx="230.151" cy="100" r="4" fill="#3B7B98"/>
<circle cx="230.151" cy="116" r="4" fill="#3B7B98"/>
<circle cx="230.151" cy="132" r="4" fill="#3B7B98"/>
<circle cx="230.151" cy="148" r="4" fill="#3B7B98"/>
<circle cx="197.151" cy="4" r="4" fill="#3B7B98"/>
<circle cx="197.151" cy="20" r="4" fill="#3B7B98"/>
<circle cx="197.151" cy="36" r="4" fill="#3B7B98"/>
<circle cx="197.151" cy="52" r="4" fill="#3B7B98"/>
<circle cx="197.151" cy="68" r="4" fill="#3B7B98"/>
<circle cx="197.151" cy="84" r="4" fill="#3B7B98"/>
<circle cx="197.151" cy="100" r="4" fill="#3B7B98"/>
<circle cx="197.151" cy="116" r="4" fill="#3B7B98"/>
<circle cx="197.151" cy="132" r="4" fill="#3B7B98"/>
<circle cx="197.151" cy="148" r="4" fill="#3B7B98"/>
<circle cx="294.151" cy="4" r="4" fill="#3B7B98"/>
<circle cx="294.151" cy="20" r="4" fill="#3B7B98"/>
<circle cx="294.151" cy="36" r="4" fill="#3B7B98"/>
<circle cx="294.151" cy="52" r="4" fill="#3B7B98"/>
<circle cx="294.151" cy="68" r="4" fill="#3B7B98"/>
<circle cx="294.151" cy="84" r="4" fill="#3B7B98"/>
<circle cx="294.151" cy="100" r="4" fill="#3B7B98"/>
<circle cx="294.151" cy="116" r="4" fill="#3B7B98"/>
<circle cx="294.151" cy="132" r="4" fill="#3B7B98"/>
<circle cx="294.151" cy="148" r="4" fill="#3B7B98"/>
<circle cx="246.151" cy="4" r="4" fill="#3B7B98"/>
<circle cx="246.151" cy="20" r="4" fill="#3B7B98"/>
<circle cx="246.151" cy="36" r="4" fill="#3B7B98"/>
<circle cx="246.151" cy="52" r="4" fill="#3B7B98"/>
<circle cx="246.151" cy="68" r="4" fill="#3B7B98"/>
<circle cx="246.151" cy="84" r="4" fill="#3B7B98"/>
<circle cx="246.151" cy="100" r="4" fill="#3B7B98"/>
<circle cx="246.151" cy="116" r="4" fill="#3B7B98"/>
<circle cx="246.151" cy="132" r="4" fill="#3B7B98"/>
<circle cx="246.151" cy="148" r="4" fill="#3B7B98"/>
<circle cx="68.1514" cy="4" r="4" fill="#3B7B98"/>
<circle cx="68.1514" cy="20" r="4" fill="#3B7B98"/>
<circle cx="68.1514" cy="36" r="4" fill="#3B7B98"/>
<circle cx="68.1514" cy="52" r="4" fill="#3B7B98"/>
<circle cx="68.1514" cy="68" r="4" fill="#3B7B98"/>
<circle cx="68.1514" cy="84" r="4" fill="#3B7B98"/>
<circle cx="68.1514" cy="100" r="4" fill="#3B7B98"/>
<circle cx="68.1514" cy="116" r="4" fill="#3B7B98"/>
<circle cx="68.1514" cy="132" r="4" fill="#3B7B98"/>
<circle cx="68.1514" cy="148" r="4" fill="#3B7B98"/>
<circle cx="165.151" cy="4" r="4" fill="#3B7B98"/>
<circle cx="165.151" cy="20" r="4" fill="#3B7B98"/>
<circle cx="165.151" cy="36" r="4" fill="#3B7B98"/>
<circle cx="165.151" cy="52" r="4" fill="#3B7B98"/>
<circle cx="165.151" cy="68" r="4" fill="#3B7B98"/>
<circle cx="165.151" cy="84" r="4" fill="#3B7B98"/>
<circle cx="165.151" cy="100" r="4" fill="#3B7B98"/>
<circle cx="165.151" cy="116" r="4" fill="#3B7B98"/>
<circle cx="165.151" cy="132" r="4" fill="#3B7B98"/>
<circle cx="165.151" cy="148" r="4" fill="#3B7B98"/>
<circle cx="117.151" cy="4" r="4" fill="#3B7B98"/>
<circle cx="117.151" cy="20" r="4" fill="#3B7B98"/>
<circle cx="117.151" cy="36" r="4" fill="#3B7B98"/>
<circle cx="117.151" cy="52" r="4" fill="#3B7B98"/>
<circle cx="117.151" cy="68" r="4" fill="#3B7B98"/>
<circle cx="117.151" cy="84" r="4" fill="#3B7B98"/>
<circle cx="117.151" cy="100" r="4" fill="#3B7B98"/>
<circle cx="117.151" cy="116" r="4" fill="#3B7B98"/>
<circle cx="117.151" cy="132" r="4" fill="#3B7B98"/>
<circle cx="117.151" cy="148" r="4" fill="#3B7B98"/>
<circle cx="214.151" cy="4" r="4" fill="#3B7B98"/>
<circle cx="214.151" cy="20" r="4" fill="#3B7B98"/>
<circle cx="214.151" cy="36" r="4" fill="#3B7B98"/>
<circle cx="214.151" cy="52" r="4" fill="#3B7B98"/>
<circle cx="214.151" cy="68" r="4" fill="#3B7B98"/>
<circle cx="214.151" cy="84" r="4" fill="#3B7B98"/>
<circle cx="214.151" cy="100" r="4" fill="#3B7B98"/>
<circle cx="214.151" cy="116" r="4" fill="#3B7B98"/>
<circle cx="214.151" cy="132" r="4" fill="#3B7B98"/>
<circle cx="214.151" cy="148" r="4" fill="#3B7B98"/>
<circle cx="84.1514" cy="4" r="4" fill="#3B7B98"/>
<circle cx="84.1514" cy="20" r="4" fill="#3B7B98"/>
<circle cx="84.1514" cy="36" r="4" fill="#3B7B98"/>
<circle cx="84.1514" cy="52" r="4" fill="#3B7B98"/>
<circle cx="84.1514" cy="68" r="4" fill="#3B7B98"/>
<circle cx="84.1514" cy="84" r="4" fill="#3B7B98"/>
<circle cx="84.1514" cy="100" r="4" fill="#3B7B98"/>
<circle cx="84.1514" cy="116" r="4" fill="#3B7B98"/>
<circle cx="84.1514" cy="132" r="4" fill="#3B7B98"/>
<circle cx="84.1514" cy="148" r="4" fill="#3B7B98"/>
<circle cx="181.151" cy="4" r="4" fill="#3B7B98"/>
<circle cx="181.151" cy="20" r="4" fill="#3B7B98"/>
<circle cx="181.151" cy="36" r="4" fill="#3B7B98"/>
<circle cx="181.151" cy="52" r="4" fill="#3B7B98"/>
<circle cx="181.151" cy="68" r="4" fill="#3B7B98"/>
<circle cx="181.151" cy="84" r="4" fill="#3B7B98"/>
<circle cx="181.151" cy="100" r="4" fill="#3B7B98"/>
<circle cx="181.151" cy="116" r="4" fill="#3B7B98"/>
<circle cx="181.151" cy="132" r="4" fill="#3B7B98"/>
<circle cx="181.151" cy="148" r="4" fill="#3B7B98"/>
<circle cx="133.151" cy="4" r="4" fill="#3B7B98"/>
<circle cx="133.151" cy="20" r="4" fill="#3B7B98"/>
<circle cx="133.151" cy="36" r="4" fill="#3B7B98"/>
<circle cx="133.151" cy="52" r="4" fill="#3B7B98"/>
<circle cx="133.151" cy="68" r="4" fill="#3B7B98"/>
<circle cx="133.151" cy="84" r="4" fill="#3B7B98"/>
<circle cx="133.151" cy="100" r="4" fill="#3B7B98"/>
<circle cx="133.151" cy="116" r="4" fill="#3B7B98"/>
<circle cx="133.151" cy="132" r="4" fill="#3B7B98"/>
<circle cx="133.151" cy="148" r="4" fill="#3B7B98"/>
<circle cx="100.151" cy="4" r="4" fill="#3B7B98"/>
<circle cx="100.151" cy="20" r="4" fill="#3B7B98"/>
<circle cx="100.151" cy="36" r="4" fill="#3B7B98"/>
<circle cx="100.151" cy="52" r="4" fill="#3B7B98"/>
<circle cx="100.151" cy="68" r="4" fill="#3B7B98"/>
<circle cx="100.151" cy="84" r="4" fill="#3B7B98"/>
<circle cx="100.151" cy="100" r="4" fill="#3B7B98"/>
<circle cx="100.151" cy="116" r="4" fill="#3B7B98"/>
<circle cx="100.151" cy="132" r="4" fill="#3B7B98"/>
<circle cx="100.151" cy="148" r="4" fill="#3B7B98"/>
<circle cx="197.151" cy="4" r="4" fill="#3B7B98"/>
<circle cx="197.151" cy="20" r="4" fill="#3B7B98"/>
<circle cx="197.151" cy="36" r="4" fill="#3B7B98"/>
<circle cx="197.151" cy="52" r="4" fill="#3B7B98"/>
<circle cx="197.151" cy="68" r="4" fill="#3B7B98"/>
<circle cx="197.151" cy="84" r="4" fill="#3B7B98"/>
<circle cx="197.151" cy="100" r="4" fill="#3B7B98"/>
<circle cx="197.151" cy="116" r="4" fill="#3B7B98"/>
<circle cx="197.151" cy="132" r="4" fill="#3B7B98"/>
<circle cx="197.151" cy="148" r="4" fill="#3B7B98"/>
<circle cx="149.151" cy="4" r="4" fill="#3B7B98"/>
<circle cx="149.151" cy="20" r="4" fill="#3B7B98"/>
<circle cx="149.151" cy="36" r="4" fill="#3B7B98"/>
<circle cx="149.151" cy="52" r="4" fill="#3B7B98"/>
<circle cx="149.151" cy="68" r="4" fill="#3B7B98"/>
<circle cx="149.151" cy="84" r="4" fill="#3B7B98"/>
<circle cx="149.151" cy="100" r="4" fill="#3B7B98"/>
<circle cx="149.151" cy="116" r="4" fill="#3B7B98"/>
<circle cx="149.151" cy="132" r="4" fill="#3B7B98"/>
<circle cx="149.151" cy="148" r="4" fill="#3B7B98"/>
</svg>
