<svg xmlns="http://www.w3.org/2000/svg" xmlns:xlink="http://www.w3.org/1999/xlink" width="200" zoomAndPan="magnify" viewBox="0 0 150 49.499998" height="66" preserveAspectRatio="xMidYMid meet" version="1.0"><defs><g/></defs><g fill="#ffffff" fill-opacity="1"><g transform="translate(6.345574, 24.570934)"><g><path d="M 15.34375 0 L 8.828125 0 L 5 -12.8125 L 5.078125 -12.265625 C 5.253906 -11.035156 5.394531 -9.910156 5.5 -8.890625 C 5.613281 -7.878906 5.671875 -6.734375 5.671875 -5.453125 L 5.671875 0 L 1.078125 0 L 1.078125 -17.5625 L 7.46875 -17.5625 L 11.453125 -4.6875 L 11.375 -5.21875 C 11.175781 -6.382812 11.019531 -7.46875 10.90625 -8.46875 C 10.800781 -9.46875 10.75 -10.625 10.75 -11.9375 L 10.75 -17.5625 L 15.34375 -17.5625 Z M 15.34375 0 "/></g></g></g><g fill="#ffffff" fill-opacity="1"><g transform="translate(22.772536, 24.570934)"><g><path d="M 7.375 -13.984375 C 9.519531 -13.984375 11.210938 -13.347656 12.453125 -12.078125 C 13.691406 -10.816406 14.3125 -9.03125 14.3125 -6.71875 C 14.3125 -5.269531 14.03125 -4 13.46875 -2.90625 C 12.90625 -1.8125 12.097656 -0.96875 11.046875 -0.375 C 10.003906 0.207031 8.78125 0.5 7.375 0.5 C 5.21875 0.5 3.519531 -0.128906 2.28125 -1.390625 C 1.039062 -2.648438 0.421875 -4.441406 0.421875 -6.765625 C 0.421875 -8.210938 0.703125 -9.484375 1.265625 -10.578125 C 1.835938 -11.671875 2.644531 -12.507812 3.6875 -13.09375 C 4.726562 -13.6875 5.957031 -13.984375 7.375 -13.984375 Z M 7.375 -10.390625 C 6.726562 -10.390625 6.257812 -10.101562 5.96875 -9.53125 C 5.6875 -8.96875 5.546875 -8.046875 5.546875 -6.765625 C 5.546875 -5.429688 5.6875 -4.484375 5.96875 -3.921875 C 6.257812 -3.359375 6.726562 -3.078125 7.375 -3.078125 C 8.007812 -3.078125 8.46875 -3.363281 8.75 -3.9375 C 9.039062 -4.507812 9.1875 -5.4375 9.1875 -6.71875 C 9.1875 -8.039062 9.039062 -8.984375 8.75 -9.546875 C 8.46875 -10.109375 8.007812 -10.390625 7.375 -10.390625 Z M 7.375 -10.390625 "/></g></g></g><g fill="#ffffff" fill-opacity="1"><g transform="translate(37.508865, 24.570934)"><g><path d="M 9.234375 -13.90625 C 9.671875 -13.90625 10.125 -13.828125 10.59375 -13.671875 L 9.8125 -8.859375 C 9.363281 -8.992188 8.953125 -9.0625 8.578125 -9.0625 C 7.835938 -9.0625 7.285156 -8.816406 6.921875 -8.328125 C 6.566406 -7.835938 6.28125 -7.101562 6.0625 -6.125 L 6.0625 0 L 1.0625 0 L 1.0625 -13.46875 L 5.421875 -13.46875 L 5.828125 -10.953125 C 6.117188 -11.847656 6.570312 -12.5625 7.1875 -13.09375 C 7.8125 -13.632812 8.492188 -13.90625 9.234375 -13.90625 Z M 9.234375 -13.90625 "/></g></g></g><g fill="#ffffff" fill-opacity="1"><g transform="translate(47.854569, 24.570934)"><g><path d="M 14.109375 -18.78125 L 14.109375 0 L 9.671875 0 L 9.484375 -1.390625 C 8.523438 -0.128906 7.253906 0.5 5.671875 0.5 C 3.972656 0.5 2.695312 -0.144531 1.84375 -1.4375 C 0.988281 -2.726562 0.5625 -4.519531 0.5625 -6.8125 C 0.5625 -8.1875 0.796875 -9.414062 1.265625 -10.5 C 1.734375 -11.59375 2.390625 -12.445312 3.234375 -13.0625 C 4.085938 -13.675781 5.070312 -13.984375 6.1875 -13.984375 C 7.34375 -13.984375 8.316406 -13.628906 9.109375 -12.921875 L 9.109375 -19.28125 Z M 7.375 -3.078125 C 8.070312 -3.078125 8.648438 -3.472656 9.109375 -4.265625 L 9.109375 -9.671875 C 8.867188 -9.921875 8.628906 -10.109375 8.390625 -10.234375 C 8.160156 -10.359375 7.90625 -10.421875 7.625 -10.421875 C 7.03125 -10.421875 6.554688 -10.128906 6.203125 -9.546875 C 5.847656 -8.972656 5.671875 -8.046875 5.671875 -6.765625 C 5.671875 -5.285156 5.816406 -4.300781 6.109375 -3.8125 C 6.410156 -3.320312 6.832031 -3.078125 7.375 -3.078125 Z M 7.375 -3.078125 "/></g></g></g><g fill="#ffffff" fill-opacity="1"><g transform="translate(63.01986, 24.570934)"><g><path d="M 11.484375 -13.46875 L 11.484375 -10.015625 L 5.953125 -3.6875 L 11.65625 -3.6875 L 11.234375 0 L 0.125 0 L 0.125 -3.484375 L 5.734375 -9.84375 L 0.625 -9.84375 L 0.625 -13.46875 Z M 11.484375 -13.46875 "/></g></g></g><g fill="#ffffff" fill-opacity="1"><g transform="translate(74.930042, 24.570934)"><g><path d="M 9.71875 -0.03125 C 9.144531 1.84375 8.164062 3.257812 6.78125 4.21875 C 5.40625 5.175781 3.59375 5.6875 1.34375 5.75 L 0.8125 2.34375 C 2.101562 2.207031 3.0625 1.972656 3.6875 1.640625 C 4.320312 1.304688 4.816406 0.757812 5.171875 0 L 3.453125 0 L -0.375 -13.46875 L 4.921875 -13.46875 L 6.609375 -3.046875 L 8.703125 -13.46875 L 13.859375 -13.46875 Z M 9.71875 -0.03125 "/></g></g></g><g fill="#ffffff" fill-opacity="1"><g transform="translate(88.404689, 24.570934)"><g><path d="M 9.515625 -13.984375 C 11.179688 -13.984375 12.4375 -13.347656 13.28125 -12.078125 C 14.132812 -10.816406 14.5625 -9.050781 14.5625 -6.78125 C 14.5625 -5.382812 14.335938 -4.132812 13.890625 -3.03125 C 13.441406 -1.9375 12.8125 -1.070312 12 -0.4375 C 11.1875 0.1875 10.25 0.5 9.1875 0.5 C 7.90625 0.5 6.863281 0.0546875 6.0625 -0.828125 L 6.0625 5.21875 L 1.0625 5.734375 L 1.0625 -13.46875 L 5.5 -13.46875 L 5.703125 -12.15625 C 6.242188 -12.800781 6.84375 -13.265625 7.5 -13.546875 C 8.164062 -13.835938 8.835938 -13.984375 9.515625 -13.984375 Z M 7.546875 -3.046875 C 8.804688 -3.046875 9.4375 -4.269531 9.4375 -6.71875 C 9.4375 -7.738281 9.367188 -8.515625 9.234375 -9.046875 C 9.097656 -9.585938 8.914062 -9.945312 8.6875 -10.125 C 8.46875 -10.300781 8.179688 -10.390625 7.828125 -10.390625 C 7.117188 -10.390625 6.53125 -9.972656 6.0625 -9.140625 L 6.0625 -3.984375 C 6.28125 -3.648438 6.503906 -3.410156 6.734375 -3.265625 C 6.972656 -3.117188 7.242188 -3.046875 7.546875 -3.046875 Z M 7.546875 -3.046875 "/></g></g></g><g fill="#ffffff" fill-opacity="1"><g transform="translate(103.519519, 24.570934)"><g><path d="M 13.75 -6.921875 C 13.75 -6.492188 13.71875 -5.960938 13.65625 -5.328125 L 5.46875 -5.328125 C 5.601562 -4.421875 5.882812 -3.8125 6.3125 -3.5 C 6.75 -3.1875 7.367188 -3.03125 8.171875 -3.03125 C 8.640625 -3.03125 9.117188 -3.125 9.609375 -3.3125 C 10.097656 -3.507812 10.640625 -3.8125 11.234375 -4.21875 L 13.25 -1.484375 C 11.613281 -0.160156 9.765625 0.5 7.703125 0.5 C 5.304688 0.5 3.492188 -0.15625 2.265625 -1.46875 C 1.035156 -2.789062 0.421875 -4.539062 0.421875 -6.71875 C 0.421875 -8.0625 0.675781 -9.28125 1.1875 -10.375 C 1.707031 -11.476562 2.472656 -12.351562 3.484375 -13 C 4.492188 -13.65625 5.710938 -13.984375 7.140625 -13.984375 C 8.472656 -13.984375 9.632812 -13.703125 10.625 -13.140625 C 11.613281 -12.585938 12.378906 -11.78125 12.921875 -10.71875 C 13.472656 -9.664062 13.75 -8.398438 13.75 -6.921875 Z M 8.828125 -8.328125 C 8.816406 -9.117188 8.695312 -9.734375 8.46875 -10.171875 C 8.238281 -10.609375 7.832031 -10.828125 7.25 -10.828125 C 6.6875 -10.828125 6.265625 -10.632812 5.984375 -10.25 C 5.710938 -9.863281 5.535156 -9.164062 5.453125 -8.15625 L 8.828125 -8.15625 Z M 8.828125 -8.328125 "/></g></g></g><g fill="#ffffff" fill-opacity="1"><g transform="translate(117.574538, 24.570934)"><g><path d="M 9.234375 -13.90625 C 9.671875 -13.90625 10.125 -13.828125 10.59375 -13.671875 L 9.8125 -8.859375 C 9.363281 -8.992188 8.953125 -9.0625 8.578125 -9.0625 C 7.835938 -9.0625 7.285156 -8.816406 6.921875 -8.328125 C 6.566406 -7.835938 6.28125 -7.101562 6.0625 -6.125 L 6.0625 0 L 1.0625 0 L 1.0625 -13.46875 L 5.421875 -13.46875 L 5.828125 -10.953125 C 6.117188 -11.847656 6.570312 -12.5625 7.1875 -13.09375 C 7.8125 -13.632812 8.492188 -13.90625 9.234375 -13.90625 Z M 9.234375 -13.90625 "/></g></g></g><g fill="#ffffff" fill-opacity="1"><g transform="translate(127.920242, 24.570934)"><g><path d="M 9.859375 -13.984375 C 10.992188 -13.984375 11.882812 -13.628906 12.53125 -12.921875 C 13.175781 -12.210938 13.5 -11.21875 13.5 -9.9375 L 13.5 0 L 8.5 0 L 8.5 -9.03125 C 8.5 -9.539062 8.4375 -9.882812 8.3125 -10.0625 C 8.1875 -10.25 8 -10.34375 7.75 -10.34375 C 7.195312 -10.34375 6.632812 -9.898438 6.0625 -9.015625 L 6.0625 0 L 1.0625 0 L 1.0625 -13.46875 L 5.421875 -13.46875 L 5.78125 -12.09375 C 6.40625 -12.75 7.039062 -13.226562 7.6875 -13.53125 C 8.332031 -13.832031 9.054688 -13.984375 9.859375 -13.984375 Z M 9.859375 -13.984375 "/></g></g></g><g fill="#000000" fill-opacity="1"><g transform="translate(142.350681, 24.570934)"><g/></g></g><g fill="#ffffff" fill-opacity="1"><g transform="translate(98.497966, 35.959938)"><g><path d="M 1.726562 -1.015625 L 0.710938 -1.015625 L 0.710938 0 L 1.726562 0 Z M 1.726562 -1.015625 "/></g></g></g><g fill="#ffffff" fill-opacity="1"><g transform="translate(100.933738, 35.959938)"><g><path d="M 1.648438 -8.796875 L 0.835938 -8.796875 L 0.835938 0 L 1.648438 0 L 1.648438 -2.707031 L 2.820312 -4.363281 L 5.03125 0 L 5.957031 0 L 3.339844 -5.097656 L 5.957031 -8.796875 L 4.960938 -8.796875 L 1.648438 -3.96875 Z M 1.648438 -8.796875 "/></g></g></g><g fill="#ffffff" fill-opacity="1"><g transform="translate(107.27125, 35.959938)"><g><path d="M 2.863281 -8.886719 L 0.328125 0 L 1.207031 0 L 1.839844 -2.253906 L 5.054688 -2.253906 L 5.683594 0 L 6.5625 0 L 4.027344 -8.886719 Z M 3.441406 -7.996094 L 4.839844 -2.988281 L 2.042969 -2.988281 Z M 3.441406 -7.996094 "/></g></g></g><g fill="#ffffff" fill-opacity="1"><g transform="translate(114.16132, 35.959938)"><g><path d="M 3.597656 0.125 C 5.46875 0.125 6.429688 -0.609375 6.429688 -2.730469 L 6.429688 -8.796875 L 5.617188 -8.796875 L 5.617188 -2.785156 C 5.617188 -1.117188 4.953125 -0.609375 3.597656 -0.609375 C 2.246094 -0.609375 1.589844 -1.117188 1.589844 -2.785156 L 1.589844 -8.796875 L 0.777344 -8.796875 L 0.777344 -2.730469 C 0.777344 -0.609375 1.726562 0.125 3.597656 0.125 Z M 3.597656 0.125 "/></g></g></g><g fill="#ffffff" fill-opacity="1"><g transform="translate(121.367147, 35.959938)"><g><path d="M 0.835938 -8.796875 L 0.835938 0 L 1.648438 0 L 1.648438 -4.128906 L 4.996094 -4.128906 L 4.996094 -4.851562 L 1.648438 -4.851562 L 1.648438 -8.0625 L 5.558594 -8.0625 L 5.558594 -8.796875 Z M 0.835938 -8.796875 "/></g></g></g><g fill="#ffffff" fill-opacity="1"><g transform="translate(127.152101, 35.959938)"><g><path d="M 0.835938 -8.796875 L 0.835938 0 L 5.742188 0 L 5.742188 -0.734375 L 1.648438 -0.734375 L 1.648438 -4.128906 L 5.175781 -4.128906 L 5.175781 -4.851562 L 1.648438 -4.851562 L 1.648438 -8.0625 L 5.742188 -8.0625 L 5.742188 -8.796875 Z M 0.835938 -8.796875 "/></g></g></g><g fill="#ffffff" fill-opacity="1"><g transform="translate(133.343018, 35.959938)"><g><path d="M 6.597656 -8.796875 L 5.832031 -8.796875 L 5.832031 -3.417969 L 5.863281 -1.375 L 1.714844 -8.796875 L 0.835938 -8.796875 L 0.835938 0 L 1.601562 0 L 1.601562 -5.378906 L 1.554688 -7.421875 L 5.71875 0 L 6.597656 0 Z M 6.597656 -8.796875 "/></g></g></g></svg>