<svg width="200" height="66" viewBox="0 0 200 66" fill="none" xmlns="http://www.w3.org/2000/svg">
<path d="M29.5033 0V8.63098L13.8773 30.1802H30.011L28.8827 39.2625H0V30.7444L16.1337 8.80022H1.57953V0H29.5033Z" fill="#3D7C98"/>
<path d="M66.6583 0L54.1349 24.7647V39.2625H42.5141V24.8211L29.9907 0H42.6833L48.4937 16.0209L54.3605 0H66.6583Z" fill="#3D7C98"/>
<path d="M82.4037 0C87.7816 0 91.9561 1.12823 94.9271 3.3847C97.9357 5.60356 99.44 8.87543 99.44 13.2003C99.44 17.6757 98.0109 21.098 95.1527 23.4672C92.3322 25.8365 88.515 27.0212 83.7012 27.0212H79.8652V39.2625H68.2444V0H82.4037ZM82.573 18.8415C85.92 18.8415 87.5936 16.9611 87.5936 13.2003C87.5936 9.77802 85.8072 8.06687 82.2345 8.06687H79.8652V18.8415H82.573Z" fill="#3D7C98"/>
<path d="M128.511 0L127.326 8.06687H114.351V15.4004H125.746V23.2416H114.351V31.1392H128.228V39.2625H102.73V0H128.511Z" fill="#3D7C98"/>
<path d="M145.802 25.2724H143.659V39.2625H132.038V0H146.423C152.102 0 156.333 1.01541 159.116 3.04623C161.899 5.03944 163.29 8.17969 163.29 12.467C163.29 14.9115 162.745 16.9423 161.654 18.5594C160.563 20.1766 158.796 21.6997 156.351 23.1288L165.941 39.2625H153.08L145.802 25.2724ZM143.659 17.4876H146.705C148.285 17.4876 149.469 17.0739 150.259 16.2466C151.049 15.4192 151.444 14.1593 151.444 12.467C151.444 9.45836 149.676 7.95404 146.141 7.95404H143.659V17.4876Z" fill="#3D7C98"/>
<path d="M199.113 39.2625H184.559L175.984 10.6054L176.153 11.8464C176.567 14.5918 176.887 17.1115 177.112 19.4056C177.375 21.6621 177.507 24.2194 177.507 27.0776V39.2625H167.24V0H181.512L190.425 28.7699L190.256 27.5853C189.805 24.9904 189.448 22.5835 189.184 20.3646C188.959 18.1081 188.846 15.5132 188.846 12.5798V0H199.113V39.2625Z" fill="#3D7C98"/>
<path d="M135.254 43.0337C136.506 43.0337 137.596 43.2171 138.523 43.584C139.451 43.9293 140.39 44.4796 141.34 45.2349L140.174 46.465C139.376 45.8391 138.599 45.386 137.844 45.1054C137.088 44.8249 136.225 44.6846 135.254 44.6846C133.981 44.6846 132.794 45.0191 131.693 45.6881C130.614 46.3571 129.729 47.4253 129.039 48.8928C128.37 50.3386 128.035 52.173 128.035 54.3958C128.035 57.6976 128.661 60.1685 129.913 61.8086C131.165 63.4487 132.913 64.2688 135.157 64.2688C136.883 64.2688 138.437 63.8803 139.818 63.1034V55.2374H135.481L135.254 53.6189H141.728V64.1069C139.613 65.3154 137.423 65.9197 135.157 65.9197C132.33 65.9197 130.096 64.9378 128.456 62.974C126.816 61.0101 125.996 58.1507 125.996 54.3958C125.996 51.9572 126.417 49.8855 127.259 48.1806C128.122 46.4542 129.255 45.1701 130.657 44.3285C132.082 43.4653 133.614 43.0337 135.254 43.0337Z" fill="#3D7C98"/>
<path d="M155.038 43.0337C156.851 43.0337 158.437 43.4761 159.796 44.3609C161.156 45.2241 162.213 46.5189 162.969 48.2454C163.724 49.9718 164.102 52.0543 164.102 54.4929C164.102 56.8883 163.724 58.9492 162.969 60.6757C162.235 62.3805 161.188 63.6861 159.829 64.5925C158.469 65.4773 156.872 65.9197 155.038 65.9197C153.247 65.9197 151.671 65.4773 150.312 64.5925C148.952 63.7077 147.895 62.4129 147.139 60.708C146.384 59.0032 146.006 56.9422 146.006 54.5252C146.006 52.1298 146.384 50.0689 147.139 48.3425C147.895 46.616 148.952 45.2996 150.312 44.3933C151.693 43.4869 153.268 43.0337 155.038 43.0337ZM155.038 44.6846C152.88 44.6846 151.175 45.5154 149.923 47.1771C148.672 48.8172 148.046 51.2666 148.046 54.5252C148.046 57.7407 148.672 60.1685 149.923 61.8086C151.196 63.4487 152.901 64.2688 155.038 64.2688C157.261 64.2688 158.987 63.4595 160.217 61.841C161.447 60.2009 162.062 57.7515 162.062 54.4929C162.062 51.2127 161.436 48.7633 160.185 47.1448C158.955 45.5046 157.239 44.6846 155.038 44.6846Z" fill="#3D7C98"/>
<path d="M171.787 43.3898V63.8156H181.044L180.786 65.5636H169.844V43.3898H171.787Z" fill="#3D7C98"/>
<path d="M189.673 43.3898C192.738 43.3898 195.219 44.1667 197.118 45.7204C199.039 47.2742 199.999 50.1336 199.999 54.2986C199.999 58.4637 199.028 61.3878 197.086 63.0711C195.165 64.7328 192.813 65.5636 190.029 65.5636H185.271V43.3898H189.673ZM187.213 45.0083V63.9451H190.159C195.36 63.9451 197.96 60.7296 197.96 54.2986C197.96 51.7522 197.582 49.7991 196.827 48.4396C196.072 47.08 195.112 46.1736 193.946 45.7204C192.802 45.2457 191.464 45.0083 189.932 45.0083H187.213Z" fill="#3D7C98"/>
</svg>
